<?xml version="1.0" encoding="iso-8859-1"?>
<!-- Generator: Adobe Illustrator 27.2.0, SVG Export Plug-In . SVG Version: 6.00 Build 0)  -->
<svg version="1.1" id="Capa_1" xmlns="http://www.w3.org/2000/svg" xmlns:xlink="http://www.w3.org/1999/xlink" x="0px" y="0px"
	 viewBox="0 0 510.048 510.048" style="enable-background:new 0 0 510.048 510.048;" xml:space="preserve">
<g>
	<g>
		<g>
			<rect x="10.02" y="103.301" style="fill:#FFFFFF;" width="490" height="396.763"/>
		</g>
		<g>
			<rect x="10.02" y="10.064" style="fill:#D2DCFD;" width="490" height="93.237"/>
		</g>
		<g>
			<g>
				<path style="fill:#D2DCFD;" d="M141.777,103.301H10.02v396.763h186.783C110.282,396.227,85.897,229.799,141.777,103.301z"/>
			</g>
		</g>
		<g>
			<path style="fill:#93B2F4;" d="M196.803,10.064H10.02v93.237h131.757C155.839,69.603,174.424,38.263,196.803,10.064z"/>
		</g>
		<g>
			<rect x="406.783" y="10.064" style="fill:#FD6050;" width="93.237" height="93.237"/>
		</g>
		<g>
			<g>
				<rect x="85.133" y="191.402" style="fill:#FD6050;" width="106.449" height="73.568"/>
			</g>
			<g>
				<rect x="318.458" y="338.279" style="fill:#FD6050;" width="106.449" height="73.568"/>
			</g>
			<g>
				
					<rect x="255.02" y="191.402" transform="matrix(-1 -1.224647e-16 1.224647e-16 -1 679.928 456.3719)" style="fill:#FDCB50;" width="169.887" height="73.568"/>
			</g>
			<g>
				
					<rect x="85.133" y="338.279" transform="matrix(-1 -1.224647e-16 1.224647e-16 -1 340.1536 750.1266)" style="fill:#6864F7;" width="169.887" height="73.568"/>
			</g>
		</g>
	</g>
	<path style="fill:#052A75;" d="M500.02,0.032c-58.407,0.091-423.129-0.066-490,0c-5.522,0-10,4.477-10,10
		c0.112,58.69-0.08,422.923,0,490c0,5.523,4.477,10,10,10h490c5.522,0,10-4.477,10-10c0.087-69.248-0.063-429.31,0-490
		C510.02,4.509,505.543,0.032,500.02,0.032z M490.02,20.032v73.185h-73.237V20.032H490.02z M396.783,20.032v73.185H20.02V20.032
		H396.783z M20.02,490.032v-376.75c61.439,0,417.556,0,470,0v376.75H20.02z"/>
</g>
<g>
</g>
<g>
</g>
<g>
</g>
<g>
</g>
<g>
</g>
<g>
</g>
<g>
</g>
<g>
</g>
<g>
</g>
<g>
</g>
<g>
</g>
<g>
</g>
<g>
</g>
<g>
</g>
<g>
</g>
</svg>
