<?xml version="1.0" encoding="utf-8"?>
<!-- Generator: Adobe Illustrator 19.0.0, SVG Export Plug-In . SVG Version: 6.00 Build 0)  -->
<svg version="1.1" id="Layer_1" xmlns="http://www.w3.org/2000/svg" xmlns:xlink="http://www.w3.org/1999/xlink" x="0px" y="0px"
	 viewBox="0 0 7000 3500" style="enable-background:new 0 0 7000 3500;" xml:space="preserve">
<style type="text/css">
	.st0{fill-rule:evenodd;clip-rule:evenodd;fill:#D8DFE1;}
	.st1{fill-rule:evenodd;clip-rule:evenodd;fill:#91B2C4;}
	.st2{fill-rule:evenodd;clip-rule:evenodd;fill:#231F20;}
	.st3{fill-rule:evenodd;clip-rule:evenodd;fill:#FFFFFF;}
	.st4{fill-rule:evenodd;clip-rule:evenodd;fill:#939598;}
	.st5{fill-rule:evenodd;clip-rule:evenodd;fill:#808285;}
	.st6{fill:#939598;}
	.st7{fill:#FFFFFF;}
	.st8{fill-rule:evenodd;clip-rule:evenodd;}
	.st9{fill:#231F20;}
</style>
<g>
	<polygon class="st0" points="3500,0 7000,0 7000,3500 3500,3500 0,3500 0,0 	"/>
	<path class="st1" d="M232.4,3411.4c453-57.1,960.2-89,1495.6-89c535.4,0,1042.5,32,1495.5,89v-120.2H232.4V3411.4z"/>
	<path class="st1" d="M3557.1,1132c123.9-30.8,262.5-48,408.9-48c146.4,0,285,17.2,408.9,48v-94.1c-17.9,16.4-41.7,26.5-67.8,26.5
		h-682.2c-26.1,0-49.9-10.1-67.8-26.5V1132z"/>
	<path class="st2" d="M3624.9,181.5h682.2c55.2,0,100.3,45.2,100.3,100.3V964c0,55.2-45.1,100.4-100.3,100.4h-682.2
		c-55.2,0-100.3-45.2-100.3-100.4V281.8C3524.5,226.6,3569.7,181.5,3624.9,181.5z"/>
	<path class="st1" d="M3557.1,2245.4c123.9-30.8,262.5-48,408.9-48c146.4,0,285,17.2,408.9,48v-94.1c-17.9,16.4-41.7,26.5-67.8,26.5
		h-682.2c-26.1,0-49.9-10.1-67.8-26.5V2245.4z"/>
	<path class="st3" d="M3624.9,1294.8h682.2c55.2,0,100.3,45.2,100.3,100.4v682.2c0,55.2-45.1,100.3-100.3,100.3h-682.2
		c-55.2,0-100.3-45.2-100.3-100.3v-682.2C3524.5,1340,3569.7,1294.8,3624.9,1294.8z"/>
	<path class="st1" d="M3558.1,3358.6c123.6-30.7,261.9-47.9,407.9-47.9c146.1,0,284.4,17.2,408,47.9v-93.9
		c-17.8,16.4-41.6,26.5-67.6,26.5h-680.6c-26,0-49.8-10.1-67.6-26.5V3358.6z"/>
	<path class="st4" d="M3624.9,2408.2h682.2c55.2,0,100.3,45.1,100.3,100.3v682.2c0,55.2-45.1,100.3-100.3,100.3h-682.2
		c-55.2,0-100.3-45.1-100.3-100.3v-682.2C3524.5,2453.3,3569.7,2408.2,3624.9,2408.2z"/>
	<rect x="172" y="181.5" class="st3" width="3111.9" height="3111.9"/>
	<rect x="4650.5" y="2049.1" class="st2" width="2177.5" height="1244.3"/>
	<path class="st4" d="M4745.9,1639.9h805.2c52.5,0,95.5,43,95.5,95.5l0,0c0,52.6-43.1,95.5-95.5,95.5h-805.2
		c-52.5,0-95.5-43-95.5-95.5l0,0C4650.4,1682.9,4693.4,1639.9,4745.9,1639.9z"/>
	<path class="st2" d="M5927.2,1639.9h805.2c52.5,0,95.5,43,95.5,95.5l0,0c0,52.6-43.1,95.5-95.5,95.5h-805.2
		c-52.4,0-95.5-43-95.5-95.5l0,0C5831.7,1682.9,5874.7,1639.9,5927.2,1639.9z"/>
	<path class="st1" d="M4667.4,1520c324.6-44.7,688.1-69.6,1071.8-69.6s747.1,25,1071.8,69.6v-94H4667.4V1520z"/>
	<path class="st1" d="M4667.4,3387.4c324.6-44.6,688.1-69.6,1071.8-69.6c383.7,0,747.1,25,1071.8,69.6v-94H4667.4V3387.4z"/>
	<path class="st1" d="M4671.6,1896.5c144.5-22.9,306.2-35.7,477-35.7c170.8,0,332.5,12.8,477,35.7v-101.4
		c-17.5,21.8-44.4,35.8-74.4,35.8h-805.2c-30,0-56.9-14-74.4-35.8V1896.5z"/>
	<path class="st1" d="M5852.8,1896.5c144.5-22.9,306.3-35.7,477-35.7c170.8,0,332.5,12.8,477,35.7v-101.4
		c-17.5,21.8-44.4,35.8-74.4,35.8h-805.2c-30,0-56.8-14-74.4-35.8V1896.5z"/>
	<polygon class="st3" points="5739.2,181.5 6828,181.5 6828,1425.7 5739.2,1425.7 4650.4,1425.7 4650.4,181.4 5739.2,181.4 	"/>
	<path class="st2" d="M4650.4,181.4h510c821.3,0,821.2,1244.3,0,1244.3h-510V181.4z"/>
	<path class="st4" d="M6828,674.8h-961.9c46.2,286.1-64.1,597.1-320.5,750.9h193.5L6811,1426l17-0.2V674.8z"/>
	<path class="st2" d="M5416.4,181.4c537.8,202.3,537.8,1042.1-0.1,1244.3c-0.2,0.1-0.4,0.1-0.6,0.2h129.5c0.1-0.1,0.2-0.1,0.4-0.2
		c97.1-58.3,179-142.1,238.6-251.7c61.5-113,92-241.9,92-370.4c0-128.5-30.4-257.6-92-370.7c-59.6-109.5-141.5-193.3-238.6-251.7
		H5416.4z"/>
	<path class="st5" d="M5866.1,674.8c46.2,286.1-64.1,597.1-320.5,750.9h80.1c232.6-173.6,327.4-473.8,285.3-750.9H5866.1z"/>
	<polygon class="st6" points="6178.4,321.7 6202.2,321.7 6203,321.7 6095.6,507.7 6094.9,507.7 6071.1,507.7 6070.3,507.7 
		6177.7,321.7 	"/>
	<polygon class="st2" points="6230.3,321.7 6123,507.7 6828,507.7 6828,321.7 	"/>
	<polygon class="st6" points="6377.7,550.4 6828,550.4 6828,527.8 6390.8,527.8 	"/>
	<path class="st7" d="M6268.1,437.6h8.6v-4.4h-22v4.4h8.6v22.7h4.8V437.6L6268.1,437.6z M6284.6,433.2v27.1h4.8v-27.1H6284.6
		L6284.6,433.2z M6310.7,437.6h8.6v-4.4h-22v4.4h8.6v22.7h4.8V437.6L6310.7,437.6z M6326.9,460.3h19v-4.3h-14.2v-22.7h-4.8V460.3
		L6326.9,460.3z M6373.6,433.2h-20.1v27.1h20.3V456h-15.5v-7.3h13.6v-4.2h-13.6v-7h15.3V433.2L6373.6,433.2z M6411.4,448.8v11.4h4.7
		v-27.1h-4.7v11.2h-12.9v-11.2h-4.8v27.1h4.8v-11.4H6411.4L6411.4,448.8z M6445.8,433.2h-20.1v27.1h20.3V456h-15.5v-7.3h13.6v-4.2
		h-13.6v-7h15.3V433.2L6445.8,433.2z M6477.3,460.3L6470,450c1-0.3,1.8-0.6,2.6-1.1c0.8-0.5,1.5-1.1,2.1-1.7c0.6-0.7,1-1.5,1.3-2.4
		c0.3-0.9,0.5-1.9,0.5-3c0-1.3-0.2-2.5-0.7-3.6c-0.5-1.1-1.1-2-2-2.7c-0.9-0.7-1.9-1.3-3.2-1.7c-1.2-0.4-2.6-0.6-4.2-0.6h-12.1v27.1
		h4.8v-9.4h6l6.6,9.4H6477.3L6477.3,460.3z M6471.6,442c0,1.4-0.5,2.5-1.5,3.3c-1,0.8-2.4,1.2-4.1,1.2h-7v-9.1h6.9
		c1.8,0,3.2,0.4,4.2,1.1C6471.1,439.4,6471.6,440.5,6471.6,442L6471.6,442z M6505,433.2h-20.1v27.1h20.3V456h-15.5v-7.3h13.6v-4.2
		h-13.6v-7h15.3V433.2z"/>
	<path class="st7" d="M6297.6,369.2h-10.8l-10.5,17.4l-10.3-17.4h-11.2l16.6,26.2v17.1h9.6v-17.3L6297.6,369.2L6297.6,369.2z
		 M6336.8,396v-0.1c0-2.4-0.5-4.6-1.4-6.7c-0.9-2.1-2.1-3.9-3.7-5.5c-1.6-1.5-3.5-2.8-5.7-3.6c-2.2-0.9-4.6-1.3-7.1-1.3
		c-2.6,0-5,0.5-7.2,1.4c-2.2,0.9-4.1,2.1-5.7,3.7c-1.6,1.6-2.9,3.4-3.8,5.5c-0.9,2.1-1.4,4.3-1.4,6.7v0.1c0,2.4,0.4,4.6,1.4,6.7
		c0.9,2.1,2.2,3.9,3.7,5.5c1.6,1.5,3.5,2.7,5.7,3.6c2.2,0.9,4.6,1.3,7.1,1.3c2.6,0,5-0.5,7.2-1.4c2.2-0.9,4.1-2.1,5.7-3.7
		c1.6-1.6,2.9-3.4,3.8-5.5C6336.4,400.6,6336.8,398.4,6336.8,396L6336.8,396z M6327.5,396.1c0,1.2-0.2,2.4-0.6,3.5
		c-0.4,1.1-1,2.1-1.7,2.9c-0.7,0.8-1.6,1.4-2.7,1.9c-1.1,0.5-2.3,0.7-3.6,0.7c-1.3,0-2.5-0.2-3.6-0.7c-1.1-0.5-2-1.2-2.8-2
		c-0.8-0.9-1.4-1.8-1.8-2.9c-0.4-1.1-0.6-2.3-0.6-3.5v-0.1c0-1.2,0.2-2.4,0.6-3.5c0.4-1.1,0.9-2.1,1.7-2.9c0.8-0.8,1.7-1.5,2.7-2
		c1.1-0.4,2.3-0.7,3.6-0.7c1.3,0,2.4,0.2,3.5,0.7c1.1,0.5,2,1.2,2.8,2s1.4,1.8,1.8,2.9c0.4,1.1,0.6,2.3,0.6,3.5V396.1L6327.5,396.1z
		 M6373.8,412.5v-33.2h-9.4v18.5c0,2.2-0.5,3.9-1.6,5.1c-1.1,1.1-2.5,1.7-4.3,1.7s-3.2-0.5-4.2-1.7c-1-1.1-1.5-2.8-1.5-5.1v-18.5
		h-9.4v21.5c0,3.8,1,6.9,2.9,9.1c2,2.2,4.7,3.3,8.3,3.3c1.2,0,2.3-0.2,3.2-0.5c0.9-0.3,1.8-0.7,2.6-1.2c0.8-0.5,1.5-1.1,2.1-1.7
		c0.6-0.6,1.2-1.3,1.8-2v4.7H6373.8L6373.8,412.5z M6402.2,388.5v-9.8c-2.8-0.1-5,0.5-6.7,1.8c-1.6,1.4-2.9,3.2-3.9,5.5v-6.7h-9.4
		v33.2h9.4v-12.2c0-4,0.9-7,2.7-8.9c1.8-1.9,4.3-2.9,7.4-2.9H6402.2L6402.2,388.5z M6466.2,412.5v-43.3h-9.4v26.7l-20.3-26.7h-8.8
		v43.3h9.4v-27.6l21,27.6H6466.2L6466.2,412.5z M6504.2,412.5v-19.3c0-4.5-1.2-8-3.5-10.5c-2.4-2.5-6.1-3.8-11.3-3.8
		c-2.8,0-5.2,0.2-7.2,0.8c-2,0.5-3.9,1.1-5.7,1.9l2.4,7.2c1.5-0.6,3-1,4.4-1.4c1.4-0.3,3-0.5,4.8-0.5c2.4,0,4.1,0.5,5.3,1.5
		c1.2,1.1,1.8,2.6,1.8,4.5v0.6c-1.2-0.4-2.4-0.8-3.7-1c-1.3-0.2-2.7-0.4-4.4-0.4c-2,0-3.8,0.2-5.4,0.6c-1.6,0.4-3,1.1-4.2,2
		c-1.2,0.9-2.1,2-2.8,3.3c-0.7,1.3-1,2.9-1,4.7v0.1c0,1.7,0.3,3.1,0.9,4.4c0.6,1.3,1.4,2.3,2.4,3.2c1.1,0.8,2.3,1.5,3.6,1.9
		c1.4,0.5,2.9,0.7,4.4,0.7c2.3,0,4.3-0.4,5.9-1.1c1.6-0.8,3-1.8,4.2-3.1v3.6H6504.2L6504.2,412.5z M6495.3,400.8
		c0,1.8-0.7,3.1-2,4.2c-1.3,1.1-3.1,1.6-5.3,1.6c-1.5,0-2.8-0.4-3.7-1.1c-1-0.7-1.4-1.7-1.4-3v-0.1c0-1.5,0.6-2.6,1.7-3.4
		c1.1-0.8,2.7-1.2,4.8-1.2c1.1,0,2.2,0.1,3.3,0.3c1,0.2,1.9,0.5,2.7,0.9V400.8L6495.3,400.8z M6562.9,412.5v-21.6c0-4-1-7-3-9.1
		c-2-2.1-4.7-3.1-8.3-3.1c-2.3,0-4.3,0.5-6.1,1.3c-1.8,0.9-3.4,2.2-4.8,3.9c-0.9-1.7-2.1-3-3.7-3.9c-1.6-0.9-3.5-1.4-5.7-1.4
		c-1.2,0-2.3,0.2-3.3,0.4c-1,0.3-1.8,0.7-2.6,1.2c-0.8,0.5-1.5,1.1-2.1,1.7c-0.6,0.6-1.2,1.3-1.8,2v-4.7h-9.4v33.2h9.4V394
		c0-2.2,0.5-3.9,1.5-5c1-1.1,2.4-1.7,4.2-1.7c1.8,0,3.1,0.6,4.1,1.7c0.9,1.1,1.4,2.8,1.4,5v18.5h9.4V394c0-2.2,0.5-3.9,1.5-5
		c1-1.1,2.4-1.7,4.2-1.7c1.8,0,3.1,0.6,4.1,1.7c0.9,1.1,1.4,2.8,1.4,5v18.5H6562.9L6562.9,412.5z M6602.1,396.9v-0.1
		c0-2.4-0.3-4.6-1-6.8c-0.6-2.2-1.6-4.1-2.9-5.8c-1.4-1.7-3.1-3-5.1-4c-2-1-4.4-1.5-7.2-1.5c-2.4,0-4.6,0.5-6.7,1.4
		c-2,0.9-3.7,2.1-5.1,3.7c-1.4,1.6-2.6,3.4-3.4,5.5c-0.8,2.1-1.2,4.4-1.2,6.7v0.1c0,2.6,0.4,4.9,1.3,7c0.9,2.1,2.1,3.9,3.6,5.4
		c1.5,1.5,3.4,2.7,5.5,3.5c2.1,0.8,4.4,1.2,6.9,1.2c3,0,5.6-0.5,7.9-1.7c2.2-1.1,4.1-2.6,5.7-4.6l-5.4-4.8c-1.3,1.2-2.6,2.1-3.8,2.6
		c-1.2,0.5-2.7,0.8-4.2,0.8c-2.1,0-3.9-0.5-5.3-1.6c-1.4-1.1-2.4-2.7-2.8-4.9h23.1c0-0.4,0.1-0.8,0.1-1.2
		C6602.1,397.7,6602.1,397.3,6602.1,396.9L6602.1,396.9z M6592.9,393.3h-14.2c0.4-2.2,1.2-3.9,2.4-5.1s2.8-1.9,4.8-1.9
		c2,0,3.6,0.7,4.8,2C6591.9,389.5,6592.6,391.2,6592.9,393.3L6592.9,393.3z M6665.3,412.5v-43.3h-9.5v17.1h-17.6v-17.1h-9.6v43.3
		h9.6v-17.4h17.6v17.4H6665.3L6665.3,412.5z M6705.7,396.9v-0.1c0-2.4-0.3-4.6-0.9-6.8c-0.7-2.2-1.7-4.1-3-5.8c-1.4-1.7-3-3-5-4
		c-2.1-1-4.4-1.5-7.2-1.5c-2.4,0-4.6,0.5-6.6,1.4c-2,0.9-3.7,2.1-5.2,3.7c-1.4,1.6-2.6,3.4-3.4,5.5c-0.8,2.1-1.2,4.4-1.2,6.7v0.1
		c0,2.6,0.4,4.9,1.3,7c0.9,2.1,2.1,3.9,3.6,5.4c1.6,1.5,3.4,2.7,5.5,3.5c2.1,0.8,4.4,1.2,6.9,1.2c3,0,5.6-0.5,7.9-1.7
		c2.2-1.1,4.1-2.6,5.7-4.6l-5.4-4.8c-1.3,1.2-2.6,2.1-3.8,2.6c-1.2,0.5-2.7,0.8-4.2,0.8c-2.1,0-3.9-0.5-5.3-1.6
		c-1.4-1.1-2.4-2.7-2.8-4.9h23.1c0.1-0.4,0.1-0.8,0.1-1.2C6705.7,397.7,6705.7,397.3,6705.7,396.9L6705.7,396.9z M6696.5,393.3
		h-14.2c0.4-2.2,1.2-3.9,2.4-5.1c1.2-1.3,2.8-1.9,4.8-1.9c2,0,3.6,0.7,4.8,2C6695.5,389.5,6696.2,391.2,6696.5,393.3L6696.5,393.3z
		 M6732.7,388.5v-9.8c-2.8-0.1-5,0.5-6.7,1.8c-1.7,1.4-3,3.2-3.9,5.5v-6.7h-9.4v33.2h9.4v-12.2c0-4,0.9-7,2.7-8.9
		c1.8-1.9,4.3-2.9,7.4-2.9H6732.7L6732.7,388.5z M6769.5,396.9v-0.1c0-2.4-0.3-4.6-1-6.8c-0.6-2.2-1.6-4.1-3-5.8c-1.3-1.7-3-3-5-4
		c-2-1-4.4-1.5-7.2-1.5c-2.4,0-4.7,0.5-6.7,1.4c-2,0.9-3.7,2.1-5.2,3.7c-1.4,1.6-2.6,3.4-3.4,5.5c-0.8,2.1-1.2,4.4-1.2,6.7v0.1
		c0,2.6,0.4,4.9,1.3,7c0.9,2.1,2.1,3.9,3.6,5.4c1.5,1.5,3.4,2.7,5.5,3.5c2.1,0.8,4.4,1.2,6.9,1.2c3,0,5.6-0.5,7.9-1.7
		c2.2-1.1,4.1-2.6,5.7-4.6l-5.4-4.8c-1.3,1.2-2.6,2.1-3.9,2.6c-1.2,0.5-2.6,0.8-4.2,0.8c-2.1,0-3.9-0.5-5.3-1.6
		c-1.4-1.1-2.4-2.7-2.8-4.9h23.1c0-0.4,0.1-0.8,0.1-1.2C6769.5,397.7,6769.5,397.3,6769.5,396.9L6769.5,396.9z M6760.4,393.3h-14.2
		c0.4-2.2,1.1-3.9,2.4-5.1c1.2-1.3,2.8-1.9,4.8-1.9c2,0,3.6,0.7,4.8,2C6759.4,389.5,6760.1,391.2,6760.4,393.3z"/>
	<path class="st2" d="M6059,771.8L6059,771.8c37.4,0,67.9,30.7,67.9,67.9V1426h-135.9V839.8C5991.1,802.4,6021.7,771.8,6059,771.8z"
		/>
	<path class="st7" d="M6212.1,876.4l-3.8-3.8c-1.4,1.3-2.9,2.4-4.3,3.2c-1.5,0.8-3.3,1.2-5.3,1.2c-1.6,0-3.1-0.3-4.4-0.9
		c-1.4-0.6-2.5-1.5-3.5-2.6c-1-1.1-1.8-2.4-2.3-3.8c-0.5-1.5-0.8-3-0.8-4.7c0-1.7,0.3-3.2,0.8-4.6s1.3-2.7,2.3-3.8
		c1-1.1,2.2-1.9,3.5-2.5c1.4-0.6,2.8-0.9,4.4-0.9c1.9,0,3.6,0.4,5.1,1.2c1.5,0.7,2.9,1.7,4.3,3l3.8-4.3c-0.8-0.8-1.7-1.5-2.5-2.1
		c-0.9-0.6-1.9-1.2-3-1.7c-1-0.5-2.2-0.8-3.4-1.1c-1.3-0.2-2.7-0.4-4.2-0.4c-2.6,0-4.9,0.4-7,1.4c-2.1,0.9-3.9,2.2-5.4,3.7
		c-1.5,1.6-2.7,3.4-3.6,5.5c-0.8,2.1-1.3,4.4-1.3,6.8c0,2.4,0.4,4.7,1.3,6.8c0.9,2.1,2,3.9,3.6,5.5c1.5,1.6,3.3,2.8,5.4,3.7
		c2.1,0.9,4.3,1.3,6.8,1.3c1.6,0,3-0.1,4.3-0.4c1.3-0.3,2.5-0.7,3.6-1.2c1.1-0.5,2.1-1.1,3.1-1.8
		C6210.3,878.2,6211.2,877.3,6212.1,876.4L6212.1,876.4z M6243.4,869.1c0-1.8-0.4-3.5-1-5.1c-0.7-1.6-1.6-3-2.8-4.2
		c-1.2-1.2-2.6-2.1-4.3-2.8c-1.6-0.7-3.4-1-5.4-1c-2,0-3.8,0.3-5.4,1.1c-1.7,0.7-3.1,1.6-4.3,2.8c-1.2,1.2-2.1,2.6-2.8,4.2
		c-0.7,1.6-1,3.3-1,5.1c0,1.8,0.3,3.5,1,5.1c0.7,1.6,1.6,3,2.8,4.2c1.2,1.2,2.6,2.1,4.3,2.8c1.7,0.7,3.4,1,5.4,1
		c1.9,0,3.7-0.3,5.4-1.1c1.7-0.7,3.1-1.7,4.3-2.8c1.2-1.2,2.1-2.6,2.8-4.2C6243.1,872.7,6243.4,871,6243.4,869.1L6243.4,869.1z
		 M6237.6,869.2c0,1.1-0.2,2.1-0.5,3.1c-0.3,1-0.9,1.8-1.5,2.6c-0.7,0.8-1.5,1.3-2.4,1.8c-0.9,0.4-2,0.6-3.2,0.6
		c-1.1,0-2.2-0.2-3.1-0.6c-0.9-0.4-1.8-1-2.4-1.8c-0.7-0.7-1.2-1.6-1.6-2.6c-0.4-1-0.6-2.1-0.6-3.2c0-1.1,0.2-2.2,0.5-3.1
		c0.4-1,0.9-1.8,1.5-2.6c0.7-0.8,1.5-1.3,2.4-1.7c1-0.4,2-0.6,3.2-0.6c1.1,0,2.2,0.2,3.1,0.6c1,0.4,1.8,1,2.5,1.8
		c0.7,0.8,1.2,1.6,1.6,2.6C6237.4,867,6237.6,868.1,6237.6,869.2L6237.6,869.2z M6271,860.4c-0.7-1.3-1.6-2.4-2.9-3.2
		c-1.3-0.8-2.8-1.2-4.6-1.2c-1,0-1.8,0.1-2.6,0.3c-0.8,0.2-1.5,0.6-2.1,1c-0.6,0.4-1.1,0.9-1.7,1.4c-0.5,0.5-0.9,1.1-1.3,1.6v-3.8
		h-5.8v25.3h5.8v-14.2c0-2,0.5-3.5,1.5-4.6c1-1.1,2.3-1.7,3.9-1.7s2.9,0.5,3.8,1.6c0.9,1.1,1.3,2.6,1.3,4.6v14.4h5.8v-14.3
		c0-2,0.5-3.6,1.5-4.6c1-1.1,2.3-1.6,3.9-1.6c1.6,0,2.9,0.5,3.8,1.6c0.9,1.1,1.4,2.6,1.4,4.6v14.4h5.8v-16.1c0-3.1-0.8-5.5-2.3-7.1
		c-1.6-1.7-3.8-2.5-6.5-2.5c-1.9,0-3.6,0.4-4.9,1.2C6273.3,858,6272.1,859.1,6271,860.4L6271,860.4z M6322.4,869.1
		c0-2.1-0.4-4-1-5.6c-0.6-1.6-1.5-3-2.7-4.1c-1.1-1.1-2.3-2-3.7-2.6c-1.4-0.6-2.9-0.8-4.4-0.8c-2.1,0-3.7,0.4-5.1,1.4
		c-1.4,0.9-2.5,2-3.4,3.4v-4.2h-5.8v33h5.8v-11.6c0.9,1.2,2,2.2,3.4,3.1c1.4,0.9,3.1,1.4,5.2,1.4c1.5,0,3-0.3,4.4-0.9
		c1.4-0.6,2.7-1.4,3.8-2.5c1.1-1.1,2-2.5,2.6-4.2C6322,873.1,6322.4,871.2,6322.4,869.1L6322.4,869.1z M6316.5,869.1
		c0,1.3-0.2,2.4-0.6,3.4c-0.4,1-0.9,1.9-1.5,2.6c-0.7,0.7-1.4,1.2-2.3,1.6c-0.9,0.4-1.8,0.6-2.8,0.6c-1,0-1.9-0.2-2.8-0.6
		c-0.9-0.4-1.7-0.9-2.4-1.6c-0.7-0.7-1.2-1.6-1.6-2.6c-0.4-1-0.6-2.1-0.6-3.4c0-1.2,0.2-2.4,0.6-3.4c0.4-1,0.9-1.8,1.6-2.6
		c0.7-0.7,1.5-1.3,2.4-1.7c0.9-0.4,1.8-0.6,2.8-0.6c1,0,1.9,0.2,2.8,0.6c0.9,0.4,1.7,0.9,2.3,1.6c0.6,0.7,1.2,1.5,1.5,2.6
		C6316.3,866.8,6316.5,867.9,6316.5,869.1L6316.5,869.1z M6350.2,881.8v-15c0-3.4-0.9-6-2.7-7.9c-1.8-1.9-4.6-2.8-8.4-2.8
		c-2.1,0-3.9,0.2-5.3,0.6c-1.5,0.4-2.9,0.9-4.3,1.5l1.6,4.6c1.1-0.5,2.3-0.8,3.4-1.1c1.1-0.3,2.4-0.4,3.8-0.4c2,0,3.6,0.5,4.6,1.4
		c1.1,0.9,1.6,2.3,1.6,4v0.6c-1-0.3-2-0.6-3.1-0.8c-1.1-0.2-2.4-0.3-3.9-0.3c-1.5,0-2.8,0.2-4.1,0.5c-1.3,0.3-2.4,0.8-3.3,1.5
		c-0.9,0.7-1.6,1.5-2.1,2.5c-0.5,1.1-0.8,2.2-0.8,3.6v0.1c0,1.3,0.2,2.4,0.8,3.4c0.5,1,1.1,1.8,2,2.4c0.8,0.6,1.8,1.1,2.8,1.5
		c1.1,0.3,2.2,0.5,3.4,0.5c1.9,0,3.6-0.4,4.9-1.1c1.4-0.7,2.5-1.6,3.3-2.6v3.1H6350.2L6350.2,881.8z M6344.6,872.6
		c0,0.8-0.2,1.5-0.5,2.2c-0.3,0.7-0.8,1.2-1.4,1.7c-0.6,0.4-1.3,0.8-2.1,1.1c-0.8,0.2-1.7,0.4-2.7,0.4c-1.4,0-2.5-0.3-3.4-0.9
		c-1-0.6-1.4-1.6-1.4-2.8v-0.1c0-1.3,0.5-2.3,1.5-3c1.1-0.7,2.4-1,4.3-1c1.1,0,2.2,0.1,3.2,0.3c1,0.2,1.9,0.4,2.6,0.7V872.6
		L6344.6,872.6z M6363.6,867.5c0-2,0.5-3.5,1.6-4.6c1.1-1.1,2.4-1.7,4.1-1.7c1.7,0,3,0.5,4,1.6c0.9,1.1,1.4,2.6,1.4,4.6v14.4h5.8
		v-16.1c0-3-0.8-5.3-2.4-7.1c-1.6-1.8-3.8-2.6-6.6-2.6c-1,0-1.9,0.1-2.7,0.3c-0.8,0.2-1.5,0.6-2.1,1c-0.7,0.4-1.2,0.9-1.7,1.4
		c-0.5,0.5-1,1.1-1.4,1.7v-3.9h-5.8v25.3h5.8V867.5L6363.6,867.5z M6411,856.5h-6l-6.5,18.8l-7.2-18.8h-6.2l10.6,25.3
		c-0.5,1.1-1,1.9-1.5,2.3c-0.5,0.4-1.2,0.7-2.1,0.7c-0.6,0-1.2-0.1-1.7-0.3c-0.6-0.2-1.1-0.4-1.7-0.7l-2,4.3
		c0.9,0.5,1.8,0.8,2.7,1.1c0.9,0.3,2,0.4,3.2,0.4c1,0,1.9-0.1,2.7-0.4c0.8-0.3,1.5-0.7,2.2-1.2c0.7-0.6,1.3-1.3,1.8-2.2
		c0.5-0.9,1.1-2,1.6-3.3L6411,856.5L6411,856.5z M6449.1,848h-5.5l-14.7,33.7h6l3.4-8.1h15.9l3.4,8.1h6.2L6449.1,848L6449.1,848z
		 M6452.1,868.5h-11.6l5.8-13.4L6452.1,868.5L6452.1,868.5z M6493.3,881.8v-35h-5.8v13.6c-0.9-1.2-2.1-2.2-3.4-3.1
		c-1.4-0.9-3.1-1.3-5.2-1.3c-1.5,0-3,0.3-4.4,0.8c-1.4,0.6-2.7,1.5-3.8,2.6c-1.1,1.1-1.9,2.5-2.6,4.1c-0.7,1.6-1,3.5-1,5.6
		c0,2.1,0.3,4,1,5.6c0.7,1.6,1.6,3,2.6,4.2c1.1,1.1,2.3,2,3.7,2.5c1.4,0.6,2.9,0.9,4.3,0.9c2.1,0,3.8-0.5,5.1-1.4
		c1.4-0.9,2.5-2,3.5-3.3v4.2H6493.3L6493.3,881.8z M6487.6,869.1c0,1.3-0.2,2.4-0.6,3.4c-0.4,1-0.9,1.8-1.6,2.6
		c-0.7,0.7-1.4,1.3-2.4,1.6c-0.9,0.4-1.8,0.6-2.8,0.6c-1,0-1.9-0.2-2.8-0.6c-0.9-0.4-1.7-0.9-2.4-1.6c-0.7-0.7-1.2-1.6-1.6-2.6
		c-0.4-1-0.6-2.1-0.6-3.4c0-1.3,0.2-2.4,0.6-3.4c0.4-1,0.9-1.9,1.6-2.6c0.7-0.7,1.4-1.2,2.4-1.6c0.9-0.4,1.8-0.5,2.8-0.5
		c1,0,1.9,0.2,2.8,0.6c0.9,0.4,1.7,0.9,2.4,1.7c0.7,0.7,1.2,1.6,1.6,2.6C6487.4,866.8,6487.6,867.9,6487.6,869.1L6487.6,869.1z
		 M6526.1,881.8v-35h-5.8v13.6c-0.9-1.2-2.1-2.2-3.4-3.1c-1.4-0.9-3.1-1.3-5.2-1.3c-1.5,0-3,0.3-4.4,0.8c-1.4,0.6-2.6,1.5-3.8,2.6
		c-1.1,1.1-1.9,2.5-2.6,4.1c-0.7,1.6-1,3.5-1,5.6c0,2.1,0.4,4,1,5.6c0.7,1.6,1.5,3,2.6,4.2c1.1,1.1,2.3,2,3.7,2.5
		c1.4,0.6,2.9,0.9,4.4,0.9c2.1,0,3.7-0.5,5.1-1.4c1.4-0.9,2.6-2,3.5-3.3v4.2H6526.1L6526.1,881.8z M6520.4,869.1
		c0,1.3-0.2,2.4-0.6,3.4c-0.4,1-0.9,1.8-1.6,2.6c-0.6,0.7-1.4,1.3-2.3,1.6c-0.9,0.4-1.8,0.6-2.8,0.6c-1,0-1.9-0.2-2.8-0.6
		c-0.9-0.4-1.7-0.9-2.3-1.6c-0.7-0.7-1.2-1.6-1.6-2.6c-0.4-1-0.6-2.1-0.6-3.4c0-1.3,0.2-2.4,0.6-3.4c0.4-1,0.9-1.9,1.6-2.6
		c0.7-0.7,1.4-1.2,2.3-1.6c0.9-0.4,1.8-0.5,2.8-0.5c0.9,0,1.9,0.2,2.8,0.6c0.9,0.4,1.7,0.9,2.3,1.7c0.7,0.7,1.2,1.6,1.6,2.6
		C6520.2,866.8,6520.4,867.9,6520.4,869.1L6520.4,869.1z M6539.8,872.1c0-1.6,0.2-3.1,0.6-4.4c0.4-1.3,1-2.3,1.8-3.1
		c0.8-0.9,1.7-1.4,2.7-1.9c1.1-0.4,2.2-0.6,3.5-0.6h0.3V856c-2.2-0.1-4.1,0.4-5.5,1.6c-1.5,1.1-2.6,2.7-3.4,4.6v-5.7h-5.8v25.3h5.8
		V872.1L6539.8,872.1z M6558.1,871.2h18.6c0-0.3,0.1-0.6,0.1-0.8c0-0.3,0-0.5,0-0.8c0-1.8-0.2-3.6-0.8-5.2c-0.5-1.7-1.3-3.1-2.3-4.4
		c-1-1.2-2.3-2.2-3.8-3c-1.5-0.8-3.3-1.1-5.3-1.1c-1.8,0-3.5,0.3-5,1.1c-1.5,0.7-2.8,1.6-3.9,2.8c-1.1,1.2-2,2.6-2.6,4.2
		c-0.6,1.6-0.9,3.3-0.9,5.1c0,2,0.3,3.8,1,5.4c0.7,1.6,1.6,3,2.7,4.2c1.2,1.1,2.5,2.1,4.1,2.7c1.6,0.6,3.3,0.9,5.1,0.9
		c2.3,0,4.3-0.4,6-1.3c1.7-0.9,3.1-2,4.3-3.4l-3.4-3c-1,1-2.1,1.7-3.1,2.3c-1.1,0.5-2.3,0.8-3.7,0.8c-1.9,0-3.5-0.5-4.8-1.7
		C6559.2,874.9,6558.4,873.3,6558.1,871.2L6558.1,871.2z M6558,867.3c0.2-2,1-3.6,2.1-4.8c1.1-1.2,2.6-1.8,4.4-1.8
		c0.9,0,1.8,0.2,2.6,0.5c0.8,0.4,1.4,0.8,1.9,1.4c0.5,0.6,1,1.3,1.3,2.1c0.3,0.8,0.5,1.7,0.6,2.6H6558L6558,867.3z M6601.3,874.3
		L6601.3,874.3c0-1.2-0.2-2.2-0.7-3c-0.5-0.8-1.1-1.5-1.9-2.1c-0.7-0.6-1.6-1-2.5-1.4c-0.9-0.4-1.8-0.7-2.8-1
		c-0.7-0.2-1.4-0.5-2.1-0.7c-0.7-0.2-1.3-0.5-1.8-0.8c-0.5-0.3-0.9-0.6-1.3-0.9c-0.3-0.3-0.5-0.7-0.5-1.2v-0.1
		c0-0.7,0.3-1.3,0.9-1.8c0.6-0.5,1.5-0.7,2.6-0.7c1.1,0,2.2,0.2,3.5,0.6c1.2,0.5,2.5,1,3.7,1.7l2.3-4.1c-1.3-0.9-2.8-1.6-4.4-2.1
		c-1.7-0.5-3.3-0.8-4.8-0.8c-1.3,0-2.4,0.2-3.5,0.5c-1.1,0.4-2.1,0.9-2.9,1.5c-0.8,0.7-1.5,1.5-1.9,2.4c-0.5,1-0.7,2-0.7,3.2v0.1
		c0,1.2,0.2,2.2,0.7,3c0.5,0.8,1.1,1.5,1.8,2.1c0.8,0.5,1.6,1,2.6,1.4c0.9,0.4,1.9,0.7,2.8,1c0.7,0.2,1.4,0.4,2.1,0.6
		c0.7,0.2,1.3,0.4,1.8,0.7c0.5,0.3,0.9,0.6,1.2,0.9c0.3,0.3,0.5,0.7,0.5,1.2v0.1c0,0.9-0.3,1.5-1,2c-0.7,0.5-1.7,0.8-2.9,0.8
		c-1.3,0-2.6-0.3-4.1-0.8c-1.4-0.5-2.8-1.3-4.2-2.3l-2.6,3.9c1.6,1.2,3.3,2.2,5.1,2.8c1.9,0.7,3.7,1,5.6,1c1.3,0,2.6-0.1,3.7-0.5
		c1.1-0.3,2.1-0.9,3-1.5c0.9-0.7,1.5-1.5,2-2.5C6601.1,876.8,6601.3,875.6,6601.3,874.3L6601.3,874.3z M6625.5,874.3L6625.5,874.3
		c0-1.2-0.2-2.2-0.7-3c-0.5-0.8-1.1-1.5-1.9-2.1c-0.8-0.6-1.6-1-2.5-1.4c-0.9-0.4-1.9-0.7-2.8-1c-0.7-0.2-1.4-0.5-2.1-0.7
		c-0.7-0.2-1.3-0.5-1.8-0.8c-0.5-0.3-0.9-0.6-1.3-0.9c-0.3-0.3-0.5-0.7-0.5-1.2v-0.1c0-0.7,0.3-1.3,1-1.8c0.6-0.5,1.5-0.7,2.6-0.7
		c1.1,0,2.2,0.2,3.5,0.6c1.2,0.5,2.5,1,3.7,1.7l2.3-4.1c-1.4-0.9-2.8-1.6-4.5-2.1c-1.6-0.5-3.2-0.8-4.8-0.8c-1.2,0-2.4,0.2-3.5,0.5
		c-1.1,0.4-2.1,0.9-2.9,1.5c-0.8,0.7-1.4,1.5-1.9,2.4c-0.5,1-0.7,2-0.7,3.2v0.1c0,1.2,0.2,2.2,0.7,3c0.5,0.8,1.1,1.5,1.8,2.1
		c0.8,0.5,1.6,1,2.6,1.4c0.9,0.4,1.9,0.7,2.8,1c0.7,0.2,1.4,0.4,2.1,0.6c0.7,0.2,1.3,0.4,1.8,0.7c0.5,0.3,0.9,0.6,1.2,0.9
		c0.3,0.3,0.5,0.7,0.5,1.2v0.1c0,0.9-0.3,1.5-1.1,2c-0.7,0.5-1.6,0.8-2.9,0.8c-1.3,0-2.7-0.3-4.1-0.8c-1.4-0.5-2.8-1.3-4.2-2.3
		l-2.6,3.9c1.6,1.2,3.4,2.2,5.2,2.8c1.9,0.7,3.7,1,5.5,1c1.3,0,2.5-0.1,3.7-0.5c1.1-0.3,2.1-0.9,3-1.5c0.8-0.7,1.5-1.5,2-2.5
		C6625.3,876.8,6625.5,875.6,6625.5,874.3L6625.5,874.3z M6652.3,867.5c0-2,0.5-3.5,1.6-4.6c1.1-1.1,2.4-1.7,4.1-1.7
		c1.7,0,3,0.5,4,1.6c0.9,1.1,1.4,2.6,1.4,4.6v14.4h5.8v-16.1c0-3-0.8-5.3-2.4-7.1c-1.6-1.8-3.8-2.6-6.7-2.6c-1,0-1.9,0.1-2.7,0.3
		c-0.8,0.2-1.5,0.6-2.2,1c-0.6,0.4-1.2,0.9-1.7,1.4c-0.5,0.5-0.9,1.1-1.4,1.7v-13.6h-5.8v35h5.8V867.5L6652.3,867.5z M6681.3,871.2
		h18.6c0-0.3,0.1-0.6,0.1-0.8c0-0.3,0.1-0.5,0.1-0.8c0-1.8-0.3-3.6-0.8-5.2c-0.5-1.7-1.3-3.1-2.3-4.4c-1-1.2-2.3-2.2-3.8-3
		c-1.5-0.8-3.3-1.1-5.3-1.1c-1.8,0-3.5,0.3-5,1.1c-1.5,0.7-2.8,1.6-3.9,2.8c-1.1,1.2-2,2.6-2.6,4.2c-0.6,1.6-0.9,3.3-0.9,5.1
		c0,2,0.3,3.8,1,5.4c0.7,1.6,1.6,3,2.8,4.2c1.1,1.1,2.5,2.1,4.1,2.7c1.6,0.6,3.3,0.9,5.1,0.9c2.3,0,4.3-0.4,6-1.3
		c1.7-0.9,3.1-2,4.3-3.4l-3.4-3c-1,1-2.1,1.7-3.1,2.3c-1.1,0.5-2.3,0.8-3.7,0.8c-1.9,0-3.5-0.5-4.8-1.7
		C6682.4,874.9,6681.6,873.3,6681.3,871.2L6681.3,871.2z M6681.2,867.3c0.2-2,1-3.6,2.1-4.8c1.1-1.2,2.6-1.8,4.4-1.8
		c1,0,1.8,0.2,2.6,0.5c0.8,0.4,1.4,0.8,1.9,1.4c0.5,0.6,1,1.3,1.3,2.1c0.3,0.8,0.5,1.7,0.6,2.6H6681.2L6681.2,867.3z M6712.3,872.1
		c0-1.6,0.2-3.1,0.6-4.4c0.4-1.3,1-2.3,1.8-3.1c0.8-0.9,1.7-1.4,2.7-1.9c1.1-0.4,2.2-0.6,3.5-0.6h0.3V856c-2.2-0.1-4.1,0.4-5.6,1.6
		c-1.5,1.1-2.6,2.7-3.4,4.6v-5.7h-5.8v25.3h5.8V872.1L6712.3,872.1z M6730.5,871.2h18.6c0-0.3,0.1-0.6,0.1-0.8c0-0.3,0-0.5,0-0.8
		c0-1.8-0.3-3.6-0.8-5.2c-0.5-1.7-1.3-3.1-2.3-4.4c-1-1.2-2.3-2.2-3.8-3c-1.5-0.8-3.3-1.1-5.3-1.1c-1.8,0-3.5,0.3-5,1.1
		c-1.5,0.7-2.8,1.6-3.9,2.8c-1.1,1.2-2,2.6-2.6,4.2c-0.6,1.6-0.9,3.3-0.9,5.1c0,2,0.3,3.8,1,5.4c0.7,1.6,1.6,3,2.7,4.2
		c1.2,1.1,2.5,2.1,4.1,2.7c1.6,0.6,3.3,0.9,5.1,0.9c2.3,0,4.3-0.4,6-1.3c1.7-0.9,3.1-2,4.3-3.4l-3.4-3c-1,1-2,1.7-3.1,2.3
		c-1.1,0.5-2.3,0.8-3.7,0.8c-1.9,0-3.5-0.5-4.8-1.7C6731.7,874.9,6730.8,873.3,6730.5,871.2L6730.5,871.2z M6730.4,867.3
		c0.2-2,1-3.6,2.1-4.8c1.1-1.2,2.6-1.8,4.4-1.8c0.9,0,1.8,0.2,2.6,0.5c0.7,0.4,1.4,0.8,1.9,1.4c0.5,0.6,1,1.3,1.3,2.1
		c0.3,0.8,0.5,1.7,0.6,2.6H6730.4z"/>
	<path class="st7" d="M6213.8,928.6c0-2.1-0.4-4-1.1-5.8c-0.8-1.8-1.8-3.3-3.2-4.6c-1.4-1.3-3-2.3-4.9-3.1c-1.9-0.8-4-1.1-6.3-1.1
		h-10.9v29.3h10.9c2.3,0,4.4-0.4,6.3-1.1c1.9-0.8,3.6-1.8,4.9-3.1c1.4-1.3,2.4-2.9,3.2-4.7C6213.4,932.6,6213.8,930.7,6213.8,928.6
		L6213.8,928.6z M6208.4,928.7c0,1.4-0.2,2.8-0.7,4c-0.5,1.2-1.2,2.3-2.1,3.2c-0.9,0.9-1.9,1.6-3.2,2.1c-1.3,0.5-2.7,0.7-4.2,0.7
		h-5.8v-19.9h5.8c1.5,0,2.9,0.2,4.2,0.7c1.3,0.5,2.3,1.2,3.2,2.1c0.9,0.9,1.6,2,2.1,3.2C6208.2,925.9,6208.4,927.2,6208.4,928.7
		L6208.4,928.7z M6223.9,934.1h16.3c0-0.2,0.1-0.5,0.1-0.7c0-0.2,0-0.4,0-0.7c0-1.6-0.2-3.1-0.7-4.6c-0.5-1.5-1.1-2.7-2-3.8
		c-0.9-1.1-2-2-3.3-2.6c-1.3-0.7-2.9-1-4.6-1c-1.6,0-3,0.3-4.3,0.9c-1.3,0.6-2.4,1.4-3.4,2.5c-1,1.1-1.7,2.3-2.3,3.7
		c-0.5,1.4-0.8,2.9-0.8,4.5c0,1.7,0.3,3.3,0.9,4.7c0.6,1.4,1.4,2.6,2.4,3.6c1,1,2.2,1.8,3.6,2.4c1.4,0.6,2.9,0.8,4.5,0.8
		c2.1,0,3.8-0.4,5.3-1.1c1.4-0.8,2.7-1.8,3.8-3l-3-2.6c-0.9,0.9-1.8,1.5-2.7,2c-0.9,0.4-2,0.7-3.3,0.7c-1.7,0-3-0.5-4.2-1.4
		C6225,937.3,6224.2,935.9,6223.9,934.1L6223.9,934.1z M6223.9,930.7c0.2-1.7,0.9-3.2,1.9-4.2c1-1.1,2.3-1.6,3.9-1.6
		c0.8,0,1.6,0.2,2.2,0.5c0.7,0.3,1.2,0.7,1.7,1.2c0.5,0.5,0.9,1.1,1.1,1.8c0.3,0.7,0.4,1.5,0.5,2.3H6223.9L6223.9,930.7z
		 M6252.1,925.6h6v-4.4h-6v-6.1h-5.1v6.1h-2.8v4.4h2.8v11.6c0,1.2,0.1,2.3,0.5,3.1c0.3,0.8,0.8,1.5,1.3,2c0.6,0.5,1.3,0.9,2,1.1
		c0.8,0.2,1.7,0.4,2.6,0.4s1.8-0.1,2.5-0.3c0.7-0.2,1.4-0.5,2.1-0.8v-4.2c-1,0.5-2.1,0.8-3.1,0.8c-0.9,0-1.5-0.2-2-0.6
		c-0.5-0.4-0.7-1.1-0.7-2.1V925.6L6252.1,925.6z M6282.4,943.3v-13.1c0-3-0.8-5.3-2.4-6.9c-1.6-1.6-4-2.4-7.3-2.4
		c-1.8,0-3.4,0.2-4.7,0.5c-1.3,0.4-2.5,0.8-3.7,1.4l1.4,4.1c1-0.4,2-0.8,3-1c1-0.3,2.1-0.4,3.4-0.4c1.8,0,3.1,0.4,4,1.2
		c0.9,0.8,1.4,2,1.4,3.5v0.6c-0.9-0.3-1.8-0.5-2.7-0.7c-0.9-0.2-2.1-0.2-3.4-0.2c-1.3,0-2.5,0.2-3.6,0.4c-1.1,0.3-2.1,0.8-2.9,1.3
		c-0.8,0.6-1.4,1.3-1.8,2.2c-0.5,0.9-0.7,2-0.7,3.2v0.1c0,1.1,0.2,2.1,0.6,3c0.5,0.8,1,1.5,1.7,2.1c0.7,0.5,1.6,1,2.5,1.3
		c0.9,0.3,1.9,0.5,3,0.5c1.7,0,3.1-0.3,4.3-0.9c1.2-0.6,2.1-1.4,2.9-2.2v2.7H6282.4L6282.4,943.3z M6277.5,935.3
		c0,0.7-0.1,1.4-0.4,1.9c-0.3,0.6-0.7,1.1-1.2,1.5c-0.5,0.4-1.1,0.7-1.9,1c-0.7,0.2-1.5,0.3-2.3,0.3c-1.2,0-2.2-0.3-3-0.8
		c-0.8-0.5-1.2-1.4-1.2-2.4v-0.1c0-1.1,0.4-2,1.3-2.6c0.9-0.6,2.1-0.9,3.7-0.9c1,0,1.9,0.1,2.8,0.2c0.9,0.1,1.6,0.4,2.3,0.6V935.3
		L6277.5,935.3z M6294.6,917.8V913h-5.5v4.8H6294.6L6294.6,917.8z M6294.4,943.3v-22.1h-5.1v22.1H6294.4L6294.4,943.3z M6307,943.3
		v-30.6h-5.1v30.6H6307L6307,943.3z M6352.9,938.6l-3.3-3.4c-1.2,1.2-2.5,2.1-3.8,2.8c-1.3,0.7-2.8,1.1-4.6,1.1
		c-1.4,0-2.7-0.3-3.9-0.8c-1.2-0.5-2.2-1.3-3.1-2.2c-0.8-0.9-1.5-2.1-2-3.4c-0.4-1.3-0.7-2.6-0.7-4.1c0-1.4,0.2-2.8,0.7-4.1
		c0.5-1.3,1.2-2.4,2-3.3c0.9-0.9,1.9-1.7,3.1-2.2c1.2-0.6,2.5-0.8,3.9-0.8c1.7,0,3.2,0.4,4.5,1c1.3,0.7,2.6,1.5,3.7,2.6l3.3-3.8
		c-0.7-0.7-1.4-1.3-2.2-1.8c-0.8-0.6-1.7-1.1-2.6-1.4c-0.9-0.4-1.9-0.7-3-1c-1.1-0.2-2.3-0.3-3.6-0.3c-2.3,0-4.3,0.4-6.1,1.2
		c-1.8,0.8-3.4,1.9-4.8,3.3c-1.4,1.4-2.4,3-3.1,4.9c-0.8,1.8-1.1,3.8-1.1,5.9c0,2.1,0.4,4.1,1.1,5.9c0.8,1.8,1.8,3.5,3.1,4.8
		c1.3,1.4,2.9,2.4,4.7,3.2c1.8,0.8,3.8,1.2,6,1.2c1.4,0,2.6-0.1,3.7-0.3c1.1-0.2,2.2-0.6,3.1-1.1c1-0.5,1.8-1,2.7-1.6
		C6351.3,940.2,6352.1,939.4,6352.9,938.6L6352.9,938.6z M6380.3,932.3c0-1.6-0.3-3.1-0.9-4.5c-0.6-1.4-1.4-2.6-2.4-3.6
		c-1.1-1.1-2.3-1.9-3.7-2.5c-1.4-0.6-3-0.9-4.7-0.9s-3.3,0.3-4.7,0.9c-1.4,0.6-2.6,1.4-3.7,2.5c-1.1,1.1-1.9,2.3-2.5,3.7
		c-0.6,1.4-0.9,2.9-0.9,4.5c0,1.6,0.3,3.1,0.9,4.5c0.6,1.4,1.4,2.6,2.4,3.6c1,1,2.3,1.9,3.7,2.4c1.4,0.6,3,0.9,4.7,0.9
		c1.7,0,3.3-0.3,4.7-0.9c1.4-0.6,2.7-1.4,3.8-2.5c1-1,1.9-2.3,2.5-3.6C6380,935.3,6380.3,933.9,6380.3,932.3L6380.3,932.3z
		 M6375.2,932.3c0,1-0.1,1.9-0.5,2.7c-0.3,0.9-0.8,1.6-1.3,2.2c-0.6,0.7-1.3,1.1-2.1,1.5c-0.8,0.4-1.7,0.6-2.8,0.6
		c-1,0-1.9-0.2-2.7-0.6c-0.9-0.4-1.6-0.9-2.1-1.5c-0.6-0.6-1.1-1.4-1.4-2.3c-0.3-0.9-0.5-1.8-0.5-2.8c0-1,0.1-1.9,0.5-2.7
		c0.3-0.9,0.7-1.6,1.3-2.2c0.6-0.7,1.3-1.2,2.1-1.5c0.8-0.4,1.7-0.6,2.8-0.6c1,0,1.9,0.2,2.7,0.6c0.8,0.4,1.6,0.9,2.1,1.5
		c0.6,0.7,1.1,1.4,1.4,2.3C6375,930.5,6375.2,931.4,6375.2,932.3L6375.2,932.3z M6400.6,933.7c0,1.7-0.4,3.1-1.4,4
		c-0.9,1-2.1,1.4-3.6,1.4c-1.5,0-2.7-0.5-3.5-1.4c-0.9-0.9-1.2-2.3-1.2-4v-12.6h-5.1v14.1c0,2.6,0.7,4.7,2.1,6.2
		c1.4,1.6,3.3,2.3,5.8,2.3c1.7,0,3.1-0.4,4.2-1.1c1.1-0.8,2-1.7,2.7-2.7v3.4h5.1v-22.1h-5.1V933.7L6400.6,933.7z M6417.7,930.8
		c0-1.7,0.5-3.1,1.4-4c0.9-1,2.1-1.4,3.6-1.4c1.5,0,2.6,0.4,3.5,1.4c0.8,0.9,1.2,2.2,1.2,4v12.6h5.1v-14.1c0-2.6-0.7-4.7-2.1-6.2
		c-1.4-1.5-3.3-2.3-5.8-2.3c-0.9,0-1.7,0.1-2.4,0.3c-0.7,0.2-1.3,0.5-1.9,0.9c-0.6,0.4-1.1,0.8-1.5,1.2c-0.4,0.4-0.9,0.9-1.2,1.5
		v-3.4h-5.1v22.1h5.1V930.8L6417.7,930.8z M6445.4,925.6h5.9v-4.4h-5.9v-6.1h-5.1v6.1h-2.8v4.4h2.8v11.6c0,1.2,0.1,2.3,0.5,3.1
		c0.3,0.8,0.8,1.5,1.3,2c0.6,0.5,1.2,0.9,2,1.1c0.8,0.2,1.6,0.4,2.6,0.4c0.9,0,1.8-0.1,2.5-0.3c0.7-0.2,1.4-0.5,2.1-0.8v-4.2
		c-1,0.5-2.1,0.8-3.2,0.8c-0.9,0-1.5-0.2-2-0.6c-0.5-0.4-0.7-1.1-0.7-2.1V925.6L6445.4,925.6z M6462.1,934.9c0-1.4,0.2-2.7,0.5-3.8
		c0.4-1.1,0.9-2,1.6-2.7c0.7-0.7,1.5-1.3,2.4-1.6c0.9-0.4,1.9-0.5,3.1-0.5h0.3v-5.4c-2-0.1-3.6,0.4-4.9,1.4c-1.3,1-2.3,2.4-3,4v-5
		h-5.1v22.1h5.1V934.9L6462.1,934.9z M6495.6,921.2h-5.3l-5.7,16.4l-6.3-16.4h-5.4l9.3,22.1c-0.4,1-0.9,1.6-1.4,2
		c-0.5,0.4-1.1,0.6-1.8,0.6c-0.5,0-1.1-0.1-1.6-0.2c-0.5-0.1-1-0.4-1.4-0.6l-1.7,3.8c0.8,0.4,1.6,0.7,2.4,1c0.9,0.2,1.8,0.3,2.8,0.3
		c0.9,0,1.7-0.1,2.4-0.3c0.7-0.2,1.3-0.6,1.9-1.1c0.6-0.5,1.1-1.1,1.6-1.9c0.5-0.8,1-1.8,1.4-2.9L6495.6,921.2z"/>
	<path class="st7" d="M6200.7,1039.1l13.3-20.1h-6.8l-9.5,14.8l-9.4-14.8h-6.9l13.3,20.3v13.2h6V1039.1L6200.7,1039.1z
		 M6239.6,1039.8c0,1.8-0.4,3.5-1.1,5.1c-0.7,1.6-1.6,3-2.8,4.2c-1.2,1.2-2.6,2.1-4.3,2.8c-1.7,0.7-3.5,1.1-5.4,1.1
		c-1.9,0-3.7-0.3-5.4-1c-1.6-0.7-3-1.6-4.3-2.8c-1.2-1.2-2.1-2.6-2.8-4.2c-0.7-1.6-1-3.3-1-5.1c0-1.8,0.4-3.5,1-5.1
		c0.7-1.6,1.6-3,2.8-4.2c1.2-1.2,2.6-2.2,4.3-2.8c1.7-0.7,3.5-1.1,5.4-1.1c1.9,0,3.7,0.3,5.4,1c1.7,0.7,3.1,1.6,4.3,2.8
		c1.2,1.2,2.1,2.6,2.8,4.2C6239.2,1036.3,6239.6,1038,6239.6,1039.8L6239.6,1039.8z M6233.7,1039.9c0-1.1-0.2-2.2-0.6-3.2
		c-0.4-1-0.9-1.8-1.6-2.6s-1.5-1.4-2.4-1.8c-1-0.4-2-0.6-3.1-0.6c-1.2,0-2.2,0.2-3.1,0.6c-0.9,0.4-1.8,1-2.4,1.7
		c-0.7,0.7-1.2,1.6-1.5,2.6c-0.4,1-0.5,2-0.5,3.1c0,1.1,0.2,2.2,0.6,3.2c0.4,1,0.9,1.9,1.6,2.6c0.7,0.8,1.5,1.3,2.4,1.7
		c0.9,0.4,2,0.7,3.1,0.7c1.2,0,2.3-0.2,3.2-0.7c1-0.4,1.8-1,2.4-1.7c0.7-0.7,1.2-1.6,1.5-2.6
		C6233.6,1042.1,6233.7,1041,6233.7,1039.9L6233.7,1039.9z M6262.7,1041.5c0,2-0.5,3.5-1.6,4.6c-1,1.1-2.4,1.6-4.1,1.6
		c-1.7,0-3.1-0.5-4-1.6c-1-1.1-1.4-2.6-1.4-4.6v-14.4h-5.8v16.1c0,3,0.8,5.3,2.4,7.1c1.6,1.8,3.8,2.6,6.6,2.6c2,0,3.5-0.4,4.8-1.3
		c1.2-0.9,2.3-1.9,3.1-3.1v3.9h5.8v-25.3h-5.8V1041.5L6262.7,1041.5z M6282.3,1042.9c0-1.7,0.2-3.1,0.6-4.4c0.4-1.2,1-2.3,1.8-3.1
		c0.8-0.8,1.7-1.5,2.7-1.9c1.1-0.4,2.2-0.6,3.5-0.6h0.3v-6.1c-2.2-0.1-4.1,0.4-5.6,1.6c-1.5,1.1-2.6,2.6-3.4,4.6v-5.7h-5.8v25.3h5.8
		V1042.9L6282.3,1042.9z M6338,1030.2c0-1.8-0.3-3.3-0.9-4.6c-0.6-1.4-1.4-2.6-2.5-3.6c-1.1-1-2.4-1.7-4-2.3
		c-1.6-0.5-3.3-0.8-5.3-0.8h-13.2v33.5h5.9v-10.8h6.7c1.8,0,3.6-0.2,5.2-0.8c1.6-0.5,3.1-1.2,4.3-2.2c1.2-1,2.2-2.1,2.9-3.6
		C6337.6,1033.8,6338,1032.1,6338,1030.2L6338,1030.2z M6332,1030.4c0,1.8-0.7,3.3-1.9,4.4c-1.3,1.1-3.1,1.7-5.3,1.7h-6.9v-12.1h6.9
		c2.2,0,3.9,0.5,5.3,1.5C6331.3,1026.8,6332,1028.4,6332,1030.4L6332,1030.4z M6349.9,1038.2c0-2,0.5-3.5,1.6-4.6
		c1.1-1.1,2.4-1.7,4.1-1.7c1.7,0,3,0.5,4,1.6c0.9,1.1,1.4,2.6,1.4,4.6v14.3h5.8v-16.1c0-3-0.8-5.3-2.4-7.1c-1.6-1.7-3.8-2.6-6.6-2.6
		c-1,0-1.9,0.1-2.7,0.4c-0.8,0.2-1.5,0.6-2.2,1c-0.6,0.4-1.2,0.9-1.7,1.4c-0.5,0.5-0.9,1.1-1.4,1.7v-13.6h-5.8v34.9h5.8V1038.2
		L6349.9,1038.2z M6400,1039.8c0-1.8-0.3-3.5-1-5.1c-0.7-1.6-1.6-3-2.8-4.2c-1.2-1.2-2.6-2.1-4.3-2.8c-1.6-0.7-3.4-1-5.4-1
		c-2,0-3.7,0.4-5.4,1.1c-1.6,0.7-3.1,1.6-4.3,2.8c-1.2,1.2-2.1,2.6-2.8,4.2c-0.7,1.6-1,3.3-1,5.1c0,1.8,0.3,3.5,1,5.1
		c0.7,1.6,1.6,3,2.8,4.2c1.2,1.2,2.6,2.1,4.3,2.8c1.7,0.7,3.4,1,5.4,1c1.9,0,3.7-0.3,5.4-1.1c1.7-0.7,3.1-1.7,4.3-2.8
		c1.2-1.2,2.1-2.6,2.8-4.2C6399.7,1043.4,6400,1041.7,6400,1039.8L6400,1039.8z M6394.2,1039.9c0,1.1-0.2,2.2-0.5,3.1
		c-0.4,1-0.9,1.8-1.6,2.6c-0.7,0.8-1.5,1.3-2.4,1.7c-0.9,0.4-2,0.7-3.2,0.7c-1.1,0-2.2-0.2-3.1-0.7c-0.9-0.4-1.7-1-2.4-1.7
		c-0.7-0.7-1.2-1.6-1.6-2.6c-0.4-1-0.6-2.1-0.6-3.2c0-1.1,0.2-2.2,0.5-3.1c0.3-1,0.9-1.8,1.5-2.6c0.7-0.8,1.5-1.3,2.4-1.7
		c1-0.4,2-0.6,3.2-0.6c1.1,0,2.2,0.2,3.1,0.6c0.9,0.4,1.8,1,2.4,1.8c0.7,0.8,1.2,1.6,1.6,2.6
		C6394.1,1037.8,6394.2,1038.8,6394.2,1039.9L6394.2,1039.9z M6412.4,1038.2c0-2,0.5-3.5,1.6-4.6c1.1-1.1,2.4-1.7,4.1-1.7
		c1.7,0,3,0.5,4,1.6c0.9,1.1,1.4,2.6,1.4,4.6v14.3h5.8v-16.1c0-3-0.8-5.3-2.4-7.1c-1.6-1.7-3.8-2.6-6.7-2.6c-1,0-1.9,0.1-2.7,0.4
		c-0.8,0.2-1.5,0.6-2.2,1c-0.6,0.4-1.2,0.9-1.7,1.4c-0.5,0.5-0.9,1.1-1.4,1.7v-3.9h-5.8v25.3h5.8V1038.2L6412.4,1038.2z
		 M6441.4,1041.9h18.6c0-0.3,0.1-0.6,0.1-0.8c0-0.2,0.1-0.5,0.1-0.8c0-1.8-0.3-3.6-0.8-5.2c-0.5-1.7-1.3-3.1-2.3-4.4
		c-1-1.2-2.3-2.2-3.8-3c-1.5-0.8-3.3-1.1-5.3-1.1c-1.8,0-3.5,0.4-5,1.1c-1.5,0.7-2.8,1.6-3.9,2.8c-1.1,1.2-2,2.6-2.6,4.2
		c-0.6,1.6-0.9,3.3-0.9,5.1c0,2,0.3,3.8,1,5.4c0.7,1.6,1.6,3,2.8,4.2c1.1,1.1,2.5,2.1,4.1,2.7c1.6,0.6,3.3,0.9,5.1,0.9
		c2.4,0,4.3-0.4,6-1.3c1.7-0.8,3.1-2,4.3-3.4l-3.4-3c-1,1-2.1,1.7-3.1,2.3c-1.1,0.5-2.3,0.8-3.7,0.8c-1.9,0-3.5-0.5-4.8-1.7
		C6442.6,1045.6,6441.8,1044,6441.4,1041.9L6441.4,1041.9z M6441.4,1038.1c0.2-2,1-3.6,2.1-4.8c1.1-1.2,2.6-1.8,4.4-1.8
		c1,0,1.8,0.1,2.6,0.5c0.8,0.4,1.4,0.8,1.9,1.4c0.5,0.6,1,1.3,1.3,2.1c0.3,0.8,0.5,1.7,0.6,2.6H6441.4L6441.4,1038.1z
		 M6505.1,1042.2l-17.9-23.2h-5.5v33.5h5.8v-23.8l18.5,23.8h4.9V1019h-5.8V1042.2L6505.1,1042.2z M6536.2,1041.5
		c0,2-0.5,3.5-1.6,4.6c-1,1.1-2.4,1.6-4.1,1.6c-1.7,0-3-0.5-4-1.6c-0.9-1.1-1.4-2.6-1.4-4.6v-14.4h-5.8v16.1c0,3,0.8,5.3,2.4,7.1
		c1.6,1.8,3.8,2.6,6.7,2.6c1.9,0,3.5-0.4,4.8-1.3c1.2-0.9,2.3-1.9,3.1-3.1v3.9h5.8v-25.3h-5.8V1041.5L6536.2,1041.5z M6571,1031.1
		c-0.7-1.3-1.6-2.4-2.9-3.2c-1.3-0.8-2.8-1.2-4.6-1.2c-1,0-1.8,0.1-2.6,0.4c-0.8,0.2-1.5,0.6-2.1,1c-0.6,0.4-1.2,0.9-1.7,1.4
		s-0.9,1-1.3,1.6v-3.8h-5.8v25.3h5.8v-14.2c0-2,0.5-3.5,1.5-4.6c1-1.1,2.3-1.7,4-1.7c1.6,0,2.9,0.5,3.8,1.6c0.9,1.1,1.3,2.6,1.3,4.6
		v14.4h5.8v-14.3c0-2.1,0.5-3.6,1.5-4.6c1-1.1,2.3-1.6,3.9-1.6c1.6,0,2.9,0.5,3.8,1.6c0.9,1.1,1.4,2.6,1.4,4.6v14.3h5.8v-16.1
		c0-3.1-0.8-5.5-2.4-7.1c-1.5-1.7-3.7-2.5-6.5-2.5c-1.9,0-3.6,0.4-4.9,1.2C6573.2,1028.7,6572,1029.8,6571,1031.1L6571,1031.1z
		 M6622.3,1039.8c0-2.1-0.4-4-1-5.6c-0.7-1.6-1.6-3-2.6-4.1c-1.1-1.1-2.4-2-3.7-2.6c-1.4-0.6-2.9-0.9-4.4-0.9
		c-2.1,0-3.7,0.5-5.1,1.4c-1.4,0.9-2.5,2-3.4,3.4v-13.9h-5.8v34.9h5.8v-3.9c0.9,1.2,2,2.2,3.4,3.1c1.4,0.9,3.1,1.4,5.2,1.4
		c1.5,0,3-0.3,4.4-0.9c1.4-0.6,2.7-1.4,3.8-2.5c1.1-1.1,2-2.5,2.6-4.2C6622,1043.8,6622.3,1042,6622.3,1039.8L6622.3,1039.8z
		 M6616.4,1039.8c0,1.2-0.2,2.4-0.6,3.4c-0.4,1-0.9,1.9-1.5,2.6c-0.7,0.7-1.4,1.2-2.3,1.6c-0.9,0.4-1.8,0.6-2.8,0.6
		c-1,0-1.9-0.2-2.8-0.6c-0.9-0.4-1.7-0.9-2.4-1.7c-0.7-0.7-1.2-1.6-1.6-2.6c-0.4-1-0.6-2.1-0.6-3.3s0.2-2.4,0.6-3.4
		c0.4-1,0.9-1.8,1.6-2.6c0.7-0.7,1.4-1.3,2.4-1.7c0.9-0.4,1.8-0.6,2.8-0.6c1,0,1.9,0.2,2.8,0.6c0.9,0.4,1.7,0.9,2.3,1.6
		c0.6,0.7,1.2,1.5,1.5,2.6C6616.2,1037.5,6616.4,1038.6,6616.4,1039.8L6616.4,1039.8z M6633.3,1041.9h18.6c0.1-0.3,0.1-0.6,0.1-0.8
		c0-0.2,0.1-0.5,0.1-0.8c0-1.8-0.3-3.6-0.8-5.2c-0.5-1.7-1.3-3.1-2.3-4.4c-1-1.2-2.3-2.2-3.8-3c-1.5-0.8-3.3-1.1-5.3-1.1
		c-1.8,0-3.5,0.4-5,1.1c-1.5,0.7-2.8,1.6-3.9,2.8c-1.1,1.2-2,2.6-2.6,4.2c-0.6,1.6-0.9,3.3-0.9,5.1c0,2,0.3,3.8,1,5.4
		c0.6,1.6,1.6,3,2.7,4.2c1.2,1.1,2.5,2.1,4.1,2.7c1.5,0.6,3.3,0.9,5.1,0.9c2.4,0,4.4-0.4,6-1.3c1.7-0.8,3.1-2,4.3-3.4l-3.4-3
		c-1,1-2,1.7-3.1,2.3c-1.1,0.5-2.3,0.8-3.8,0.8c-1.9,0-3.5-0.5-4.8-1.7C6634.5,1045.6,6633.7,1044,6633.3,1041.9L6633.3,1041.9z
		 M6633.3,1038.1c0.2-2,1-3.6,2.1-4.8c1.1-1.2,2.6-1.8,4.4-1.8c1,0,1.8,0.1,2.6,0.5c0.8,0.4,1.4,0.8,2,1.4c0.5,0.6,1,1.3,1.3,2.1
		c0.3,0.8,0.5,1.7,0.6,2.6H6633.3L6633.3,1038.1z M6664.3,1042.9c0-1.7,0.2-3.1,0.6-4.4c0.4-1.2,1-2.3,1.8-3.1
		c0.7-0.8,1.7-1.5,2.7-1.9c1-0.4,2.2-0.6,3.5-0.6h0.3v-6.1c-2.2-0.1-4.1,0.4-5.6,1.6c-1.4,1.1-2.6,2.6-3.4,4.6v-5.7h-5.8v25.3h5.8
		V1042.9z"/>
	<path class="st7" d="M6200.7,1173.7l13.3-20.2h-6.8l-9.5,14.8l-9.4-14.8h-6.9l13.3,20.3v13.2h6V1173.7L6200.7,1173.7z
		 M6239.6,1174.4c0,1.8-0.4,3.5-1.1,5.1c-0.7,1.6-1.6,3-2.8,4.2c-1.2,1.2-2.6,2.1-4.3,2.8c-1.7,0.7-3.5,1.1-5.4,1.1
		c-1.9,0-3.7-0.3-5.4-1c-1.6-0.7-3-1.6-4.3-2.8c-1.2-1.2-2.1-2.6-2.8-4.2c-0.7-1.6-1-3.3-1-5.1c0-1.8,0.4-3.6,1-5.1
		c0.7-1.6,1.6-3.1,2.8-4.2c1.2-1.2,2.6-2.2,4.3-2.8c1.7-0.7,3.5-1.1,5.4-1.1c1.9,0,3.7,0.3,5.4,1c1.7,0.7,3.1,1.6,4.3,2.9
		c1.2,1.2,2.1,2.6,2.8,4.2C6239.2,1170.9,6239.6,1172.6,6239.6,1174.4L6239.6,1174.4z M6233.7,1174.5c0-1.1-0.2-2.2-0.6-3.2
		c-0.4-1-0.9-1.8-1.6-2.6c-0.7-0.8-1.5-1.3-2.4-1.8c-1-0.4-2-0.6-3.1-0.6c-1.2,0-2.2,0.2-3.1,0.6c-0.9,0.4-1.8,1-2.4,1.7
		c-0.7,0.7-1.2,1.6-1.5,2.6c-0.4,1-0.5,2-0.5,3.1s0.2,2.2,0.6,3.2c0.4,1,0.9,1.9,1.6,2.6c0.7,0.8,1.5,1.3,2.4,1.8
		c0.9,0.4,2,0.6,3.1,0.6c1.2,0,2.3-0.2,3.2-0.6c1-0.4,1.8-1,2.4-1.8c0.7-0.7,1.2-1.6,1.5-2.6
		C6233.6,1176.6,6233.7,1175.6,6233.7,1174.5L6233.7,1174.5z M6262.7,1176c0,2-0.5,3.5-1.6,4.6c-1,1.1-2.4,1.7-4.1,1.7
		c-1.7,0-3.1-0.5-4-1.6c-1-1.1-1.4-2.6-1.4-4.6v-14.4h-5.8v16.1c0,3,0.8,5.3,2.4,7.1c1.6,1.8,3.8,2.7,6.6,2.7c2,0,3.5-0.5,4.8-1.3
		c1.2-0.9,2.3-1.9,3.1-3.1v3.9h5.8v-25.3h-5.8V1176L6262.7,1176z M6282.3,1177.4c0-1.6,0.2-3.1,0.6-4.4c0.4-1.3,1-2.3,1.8-3.1
		c0.8-0.9,1.7-1.4,2.7-1.9c1.1-0.4,2.2-0.6,3.5-0.6h0.3v-6.1c-2.2-0.1-4.1,0.4-5.6,1.6c-1.5,1.1-2.6,2.7-3.4,4.6v-5.7h-5.8v25.3h5.8
		V1177.4L6282.3,1177.4z M6327.1,1153.5h-15v33.5h15.5c1.8,0,3.5-0.2,5.1-0.6c1.5-0.4,2.8-1,3.9-1.8c1.1-0.8,1.9-1.8,2.5-2.9
		c0.6-1.1,0.9-2.5,0.9-4c0-1.2-0.1-2.2-0.5-3c-0.3-0.9-0.8-1.6-1.4-2.3c-0.6-0.6-1.3-1.2-2.1-1.6c-0.8-0.5-1.7-0.9-2.7-1.2
		c0.6-0.3,1.2-0.7,1.8-1.1c0.6-0.4,1.1-1,1.5-1.6c0.4-0.6,0.8-1.3,1.1-2.1c0.3-0.8,0.4-1.7,0.4-2.7c0-2.6-1-4.7-3-6.3
		C6333.1,1154.3,6330.4,1153.5,6327.1,1153.5L6327.1,1153.5z M6325.9,1167.6h-8.1v-8.9h8.5c1.9,0,3.4,0.4,4.4,1.1
		c1,0.8,1.5,1.8,1.5,3.2c0,1.5-0.6,2.7-1.7,3.5C6329.3,1167.3,6327.8,1167.6,6325.9,1167.6L6325.9,1167.6z M6327.6,1181.8h-9.8v-9.2
		h9.3c2.4,0,4.1,0.4,5.2,1.2c1.1,0.8,1.7,1.9,1.7,3.4c0,1.5-0.6,2.7-1.7,3.5C6331.2,1181.4,6329.6,1181.8,6327.6,1181.8
		L6327.6,1181.8z M6363.3,1176c0,2-0.5,3.5-1.6,4.6c-1,1.1-2.4,1.7-4.1,1.7c-1.7,0-3.1-0.5-4-1.6c-0.9-1.1-1.4-2.6-1.4-4.6v-14.4
		h-5.8v16.1c0,3,0.8,5.3,2.4,7.1c1.6,1.8,3.8,2.7,6.7,2.7c1.9,0,3.5-0.5,4.8-1.3c1.2-0.9,2.3-1.9,3.1-3.1v3.9h5.8v-25.3h-5.8V1176
		L6363.3,1176z M6395.1,1179.6L6395.1,1179.6c0-1.2-0.2-2.2-0.7-3c-0.5-0.8-1.1-1.5-1.8-2.1c-0.8-0.6-1.6-1-2.5-1.4
		c-0.9-0.4-1.9-0.8-2.8-1c-0.7-0.2-1.5-0.5-2.1-0.7c-0.7-0.2-1.3-0.5-1.8-0.8c-0.5-0.3-1-0.6-1.3-0.9c-0.3-0.3-0.5-0.7-0.5-1.2v-0.1
		c0-0.7,0.3-1.3,1-1.8c0.6-0.5,1.5-0.7,2.6-0.7c1.1,0,2.2,0.2,3.5,0.6c1.2,0.4,2.5,1,3.7,1.7l2.3-4.1c-1.4-0.9-2.8-1.6-4.5-2.1
		c-1.6-0.5-3.2-0.7-4.8-0.7c-1.2,0-2.4,0.1-3.5,0.5c-1.1,0.4-2.1,0.9-2.9,1.5c-0.8,0.7-1.4,1.5-1.9,2.4c-0.5,1-0.7,2-0.7,3.2v0.1
		c0,1.2,0.2,2.2,0.7,3c0.5,0.8,1.1,1.5,1.8,2.1c0.8,0.5,1.6,1,2.6,1.4c0.9,0.4,1.9,0.7,2.8,1c0.7,0.2,1.4,0.4,2.1,0.6
		c0.7,0.2,1.3,0.4,1.8,0.7c0.5,0.3,1,0.6,1.3,0.9c0.3,0.3,0.4,0.8,0.4,1.2v0.1c0,0.9-0.3,1.5-1.1,2c-0.7,0.5-1.6,0.8-2.9,0.8
		c-1.3,0-2.7-0.3-4.1-0.8c-1.4-0.5-2.8-1.3-4.2-2.3l-2.6,3.9c1.6,1.2,3.3,2.2,5.2,2.8c1.9,0.7,3.7,1,5.6,1c1.3,0,2.5-0.2,3.7-0.5
		c1.1-0.3,2.1-0.9,3-1.5c0.8-0.7,1.5-1.5,2-2.5C6394.9,1182.1,6395.1,1180.9,6395.1,1179.6L6395.1,1179.6z M6408,1157.9v-5.5h-6.2
		v5.5H6408L6408,1157.9z M6407.8,1187v-25.3h-5.8v25.3H6407.8L6407.8,1187z M6421.9,1172.8c0-2,0.5-3.5,1.6-4.6
		c1.1-1.1,2.4-1.7,4.1-1.7c1.7,0,3,0.5,4,1.6c1,1.1,1.4,2.6,1.4,4.6v14.4h5.8v-16.1c0-3-0.8-5.3-2.3-7.1c-1.6-1.8-3.8-2.6-6.7-2.6
		c-1,0-1.9,0.1-2.6,0.3c-0.8,0.2-1.5,0.6-2.2,1c-0.6,0.4-1.2,0.9-1.7,1.4c-0.5,0.5-1,1.1-1.4,1.7v-3.9h-5.8v25.3h5.8V1172.8
		L6421.9,1172.8z M6450.9,1176.5h18.6c0-0.3,0.1-0.6,0.1-0.8c0-0.3,0-0.5,0-0.8c0-1.8-0.3-3.6-0.8-5.2c-0.5-1.7-1.3-3.1-2.3-4.4
		c-1-1.2-2.3-2.2-3.8-3c-1.5-0.8-3.3-1.1-5.3-1.1c-1.8,0-3.5,0.3-5,1.1c-1.5,0.7-2.8,1.7-3.9,2.8c-1.1,1.2-2,2.6-2.6,4.2
		c-0.6,1.6-0.9,3.3-0.9,5.1c0,2,0.3,3.8,1,5.4c0.7,1.6,1.6,3,2.7,4.2c1.2,1.1,2.5,2.1,4.1,2.7c1.6,0.6,3.3,0.9,5.1,0.9
		c2.3,0,4.3-0.4,6-1.3c1.7-0.9,3.1-2,4.3-3.4l-3.4-3c-1,1-2.1,1.7-3.1,2.3c-1.1,0.5-2.3,0.7-3.7,0.7c-1.9,0-3.5-0.5-4.8-1.6
		C6452.1,1180.1,6451.2,1178.5,6450.9,1176.5L6450.9,1176.5z M6450.8,1172.6c0.2-2,1-3.6,2.1-4.8c1.1-1.2,2.6-1.8,4.4-1.8
		c0.9,0,1.8,0.2,2.6,0.5c0.7,0.4,1.4,0.8,1.9,1.4c0.5,0.6,1,1.3,1.3,2.1c0.3,0.8,0.5,1.7,0.6,2.6H6450.8L6450.8,1172.6z
		 M6494.1,1179.6L6494.1,1179.6c0-1.2-0.2-2.2-0.7-3c-0.5-0.8-1.1-1.5-1.9-2.1c-0.8-0.6-1.6-1-2.5-1.4c-0.9-0.4-1.8-0.8-2.8-1
		c-0.7-0.2-1.4-0.5-2.1-0.7c-0.7-0.2-1.3-0.5-1.8-0.8c-0.5-0.3-0.9-0.6-1.3-0.9c-0.3-0.3-0.5-0.7-0.5-1.2v-0.1
		c0-0.7,0.3-1.3,0.9-1.8c0.6-0.5,1.5-0.7,2.6-0.7c1.1,0,2.2,0.2,3.5,0.6c1.2,0.4,2.5,1,3.7,1.7l2.3-4.1c-1.4-0.9-2.8-1.6-4.5-2.1
		c-1.6-0.5-3.2-0.7-4.8-0.7c-1.2,0-2.4,0.1-3.5,0.5c-1.1,0.4-2.1,0.9-2.9,1.5c-0.8,0.7-1.4,1.5-1.9,2.4c-0.5,1-0.7,2-0.7,3.2v0.1
		c0,1.2,0.2,2.2,0.7,3c0.5,0.8,1.1,1.5,1.8,2.1c0.8,0.5,1.6,1,2.6,1.4c0.9,0.4,1.9,0.7,2.8,1c0.7,0.2,1.4,0.4,2.1,0.6
		c0.7,0.2,1.3,0.4,1.8,0.7c0.5,0.3,0.9,0.6,1.2,0.9c0.3,0.3,0.4,0.8,0.4,1.2v0.1c0,0.9-0.3,1.5-1,2c-0.7,0.5-1.7,0.8-2.9,0.8
		c-1.3,0-2.7-0.3-4.1-0.8c-1.4-0.5-2.8-1.3-4.2-2.3l-2.6,3.9c1.6,1.2,3.3,2.2,5.2,2.8c1.9,0.7,3.7,1,5.6,1c1.3,0,2.6-0.2,3.7-0.5
		c1.1-0.3,2.1-0.9,3-1.5c0.8-0.7,1.5-1.5,2-2.5C6493.9,1182.1,6494.1,1180.9,6494.1,1179.6L6494.1,1179.6z M6518.3,1179.6
		L6518.3,1179.6c0-1.2-0.2-2.2-0.7-3c-0.5-0.8-1.1-1.5-1.8-2.1c-0.8-0.6-1.6-1-2.5-1.4c-0.9-0.4-1.9-0.8-2.8-1
		c-0.7-0.2-1.5-0.5-2.1-0.7c-0.7-0.2-1.3-0.5-1.8-0.8c-0.5-0.3-1-0.6-1.3-0.9c-0.3-0.3-0.5-0.7-0.5-1.2v-0.1c0-0.7,0.3-1.3,1-1.8
		c0.6-0.5,1.5-0.7,2.6-0.7c1.1,0,2.2,0.2,3.5,0.6c1.2,0.4,2.5,1,3.7,1.7l2.3-4.1c-1.4-0.9-2.8-1.6-4.5-2.1c-1.6-0.5-3.2-0.7-4.8-0.7
		c-1.3,0-2.4,0.1-3.5,0.5c-1.1,0.4-2.1,0.9-2.9,1.5c-0.8,0.7-1.4,1.5-1.9,2.4c-0.5,1-0.7,2-0.7,3.2v0.1c0,1.2,0.2,2.2,0.7,3
		c0.5,0.8,1.1,1.5,1.8,2.1c0.8,0.5,1.6,1,2.6,1.4c0.9,0.4,1.9,0.7,2.8,1c0.7,0.2,1.4,0.4,2.1,0.6c0.7,0.2,1.3,0.4,1.8,0.7
		c0.5,0.3,1,0.6,1.3,0.9c0.3,0.3,0.5,0.8,0.5,1.2v0.1c0,0.9-0.3,1.5-1.1,2c-0.7,0.5-1.6,0.8-2.9,0.8c-1.3,0-2.7-0.3-4.1-0.8
		c-1.4-0.5-2.8-1.3-4.2-2.3l-2.6,3.9c1.6,1.2,3.3,2.2,5.2,2.8c1.9,0.7,3.7,1,5.5,1c1.3,0,2.6-0.2,3.7-0.5c1.1-0.3,2.1-0.9,3-1.5
		c0.8-0.7,1.5-1.5,2-2.5C6518.1,1182.1,6518.3,1180.9,6518.3,1179.6L6518.3,1179.6z M6564.8,1153.5H6540v33.5h25.1v-5.3h-19.2v-9
		h16.8v-5.3h-16.8v-8.7h19V1153.5L6564.8,1153.5z M6593.1,1165.7c-0.7-1.3-1.6-2.4-2.9-3.2c-1.3-0.8-2.8-1.2-4.6-1.2
		c-1,0-1.8,0.1-2.6,0.3c-0.8,0.2-1.5,0.6-2.1,1c-0.6,0.4-1.2,0.9-1.7,1.4c-0.5,0.5-0.9,1.1-1.4,1.6v-3.8h-5.8v25.3h5.8v-14.2
		c0-2,0.5-3.5,1.5-4.6c1-1.1,2.3-1.7,3.9-1.7s2.9,0.5,3.8,1.6c0.9,1.1,1.4,2.6,1.4,4.6v14.4h5.8v-14.3c0-2,0.5-3.6,1.5-4.6
		c1-1.1,2.3-1.6,3.9-1.6c1.6,0,2.9,0.5,3.8,1.6c0.9,1.1,1.3,2.6,1.3,4.6v14.4h5.8v-16.1c0-3.1-0.8-5.5-2.3-7.1
		c-1.6-1.7-3.7-2.5-6.5-2.5c-1.9,0-3.6,0.4-5,1.2C6595.3,1163.3,6594.1,1164.3,6593.1,1165.7L6593.1,1165.7z M6639.5,1187v-15
		c0-3.4-0.9-6-2.7-7.9c-1.8-1.9-4.6-2.8-8.4-2.8c-2.1,0-3.8,0.2-5.3,0.6c-1.5,0.4-2.9,0.9-4.3,1.5l1.6,4.6c1.1-0.5,2.3-0.8,3.4-1.1
		c1.1-0.3,2.4-0.4,3.8-0.4c2,0,3.6,0.4,4.6,1.4c1.1,0.9,1.6,2.3,1.6,4v0.6c-1-0.3-2-0.6-3.1-0.8c-1.1-0.2-2.4-0.3-3.9-0.3
		c-1.5,0-2.8,0.2-4.1,0.5c-1.3,0.3-2.4,0.8-3.3,1.5c-0.9,0.7-1.6,1.5-2.1,2.5c-0.5,1.1-0.8,2.2-0.8,3.6v0.1c0,1.3,0.2,2.4,0.8,3.4
		c0.5,1,1.1,1.8,2,2.4c0.8,0.6,1.7,1.1,2.8,1.5c1.1,0.3,2.2,0.5,3.4,0.5c1.9,0,3.6-0.4,4.9-1.1c1.4-0.7,2.5-1.6,3.3-2.6v3.1H6639.5
		L6639.5,1187z M6633.9,1177.9c0,0.8-0.2,1.5-0.5,2.2c-0.3,0.7-0.8,1.2-1.4,1.7c-0.6,0.4-1.3,0.8-2.1,1.1c-0.8,0.2-1.7,0.4-2.7,0.4
		c-1.4,0-2.5-0.3-3.5-0.9c-0.9-0.6-1.4-1.6-1.4-2.8v-0.1c0-1.3,0.5-2.3,1.5-3c1-0.7,2.4-1,4.3-1c1.1,0,2.2,0.1,3.2,0.3
		c1,0.2,1.9,0.4,2.6,0.7V1177.9L6633.9,1177.9z M6653.4,1157.9v-5.5h-6.2v5.5H6653.4L6653.4,1157.9z M6653.2,1187v-25.3h-5.8v25.3
		H6653.2L6653.2,1187z M6667.6,1187v-35h-5.8v35H6667.6z"/>
	<path class="st7" d="M6200.7,1308.3l13.3-20.2h-6.8l-9.5,14.9l-9.4-14.9h-6.9l13.3,20.3v13.2h6V1308.3L6200.7,1308.3z M6239.6,1309
		c0,1.8-0.4,3.5-1.1,5.2c-0.7,1.6-1.6,3-2.8,4.2c-1.2,1.2-2.6,2.1-4.3,2.9c-1.7,0.7-3.5,1.1-5.4,1.1c-1.9,0-3.7-0.3-5.4-1.1
		c-1.6-0.7-3-1.6-4.3-2.8c-1.2-1.2-2.1-2.6-2.8-4.2c-0.7-1.6-1-3.3-1-5.1c0-1.8,0.4-3.6,1-5.1c0.7-1.6,1.6-3,2.8-4.2
		c1.2-1.2,2.6-2.1,4.3-2.8c1.7-0.7,3.5-1.1,5.4-1.1c1.9,0,3.7,0.3,5.4,1c1.7,0.7,3.1,1.6,4.3,2.8c1.2,1.2,2.1,2.6,2.8,4.2
		C6239.2,1305.4,6239.6,1307.1,6239.6,1309L6239.6,1309z M6233.7,1309.1c0-1.1-0.2-2.2-0.6-3.2c-0.4-1-0.9-1.9-1.6-2.6
		c-0.7-0.8-1.5-1.4-2.4-1.8c-1-0.4-2-0.6-3.1-0.6c-1.2,0-2.2,0.2-3.1,0.6c-0.9,0.4-1.8,1-2.4,1.8c-0.7,0.7-1.2,1.6-1.5,2.6
		c-0.4,1-0.5,2-0.5,3.1c0,1.1,0.2,2.2,0.6,3.2c0.4,1,0.9,1.9,1.6,2.6c0.7,0.7,1.5,1.3,2.4,1.7c0.9,0.4,2,0.6,3.1,0.6
		c1.2,0,2.3-0.2,3.2-0.6c1-0.4,1.8-1,2.4-1.7c0.7-0.8,1.2-1.6,1.5-2.6C6233.6,1311.2,6233.7,1310.2,6233.7,1309.1L6233.7,1309.1z
		 M6262.7,1310.6c0,2-0.5,3.5-1.6,4.6c-1,1.1-2.4,1.6-4.1,1.6c-1.7,0-3.1-0.5-4-1.6c-1-1.1-1.4-2.6-1.4-4.6v-14.3h-5.8v16.1
		c0,3,0.8,5.3,2.4,7.1c1.6,1.8,3.8,2.6,6.6,2.6c2,0,3.5-0.4,4.8-1.3c1.2-0.9,2.3-1.9,3.1-3.1v3.9h5.8v-25.3h-5.8V1310.6
		L6262.7,1310.6z M6282.3,1312c0-1.6,0.2-3.1,0.6-4.4c0.4-1.3,1-2.3,1.8-3.1c0.8-0.9,1.7-1.4,2.7-1.9c1.1-0.4,2.2-0.6,3.5-0.6h0.3
		v-6.1c-2.2-0.1-4.1,0.4-5.6,1.6c-1.5,1.1-2.6,2.7-3.4,4.6v-5.7h-5.8v25.3h5.8V1312L6282.3,1312z M6327.1,1288.1h-15v33.5h15.5
		c1.8,0,3.5-0.2,5.1-0.6c1.5-0.4,2.8-1,3.9-1.8c1.1-0.8,1.9-1.8,2.5-2.9c0.6-1.1,0.9-2.5,0.9-3.9c0-1.2-0.1-2.2-0.5-3
		c-0.3-0.9-0.8-1.7-1.4-2.3c-0.6-0.6-1.3-1.2-2.1-1.7c-0.8-0.4-1.7-0.9-2.7-1.2c0.6-0.3,1.2-0.7,1.8-1.1c0.6-0.4,1.1-1,1.5-1.6
		c0.4-0.6,0.8-1.3,1.1-2.1c0.3-0.8,0.4-1.7,0.4-2.7c0-2.6-1-4.8-3-6.3C6333.1,1288.9,6330.4,1288.1,6327.1,1288.1L6327.1,1288.1z
		 M6325.9,1302.2h-8.1v-8.9h8.5c1.9,0,3.4,0.4,4.4,1.1c1,0.7,1.5,1.8,1.5,3.2c0,1.6-0.6,2.7-1.7,3.5
		C6329.3,1301.8,6327.8,1302.2,6325.9,1302.2L6325.9,1302.2z M6327.6,1316.4h-9.8v-9.2h9.3c2.4,0,4.1,0.4,5.2,1.2
		c1.1,0.8,1.7,1.9,1.7,3.4c0,1.6-0.6,2.7-1.7,3.5C6331.2,1316,6329.6,1316.4,6327.6,1316.4L6327.6,1316.4z M6363.3,1310.6
		c0,2-0.5,3.5-1.6,4.6c-1,1.1-2.4,1.6-4.1,1.6c-1.7,0-3.1-0.5-4-1.6c-0.9-1.1-1.4-2.6-1.4-4.6v-14.3h-5.8v16.1c0,3,0.8,5.3,2.4,7.1
		c1.6,1.8,3.8,2.6,6.7,2.6c1.9,0,3.5-0.4,4.8-1.3c1.2-0.9,2.3-1.9,3.1-3.1v3.9h5.8v-25.3h-5.8V1310.6L6363.3,1310.6z M6395.1,1314.1
		L6395.1,1314.1c0-1.2-0.2-2.2-0.7-3c-0.5-0.8-1.1-1.5-1.8-2c-0.8-0.6-1.6-1.1-2.5-1.4c-0.9-0.4-1.9-0.7-2.8-1
		c-0.7-0.2-1.5-0.5-2.1-0.7c-0.7-0.2-1.3-0.5-1.8-0.8c-0.5-0.3-1-0.6-1.3-0.9c-0.3-0.3-0.5-0.7-0.5-1.1v-0.1c0-0.7,0.3-1.4,1-1.8
		c0.6-0.4,1.5-0.7,2.6-0.7c1.1,0,2.2,0.2,3.5,0.6c1.2,0.4,2.5,1,3.7,1.7l2.3-4.1c-1.4-0.9-2.8-1.6-4.5-2.1c-1.6-0.5-3.2-0.8-4.8-0.8
		c-1.2,0-2.4,0.2-3.5,0.5c-1.1,0.4-2.1,0.9-2.9,1.6c-0.8,0.7-1.4,1.5-1.9,2.4c-0.5,1-0.7,2-0.7,3.2v0.1c0,1.2,0.2,2.2,0.7,3
		c0.5,0.8,1.1,1.5,1.8,2.1c0.8,0.5,1.6,1,2.6,1.4c0.9,0.3,1.9,0.6,2.8,0.9c0.7,0.2,1.4,0.5,2.1,0.6c0.7,0.2,1.3,0.4,1.8,0.7
		c0.5,0.3,1,0.6,1.3,0.9c0.3,0.4,0.4,0.8,0.4,1.3v0.1c0,0.8-0.3,1.5-1.1,2c-0.7,0.5-1.6,0.8-2.9,0.8c-1.3,0-2.7-0.3-4.1-0.8
		c-1.4-0.5-2.8-1.3-4.2-2.3l-2.6,3.9c1.6,1.3,3.3,2.2,5.2,2.8c1.9,0.6,3.7,1,5.6,1c1.3,0,2.5-0.2,3.7-0.5c1.1-0.3,2.1-0.9,3-1.5
		c0.8-0.7,1.5-1.5,2-2.5C6394.9,1316.6,6395.1,1315.5,6395.1,1314.1L6395.1,1314.1z M6408,1292.5v-5.5h-6.2v5.5H6408L6408,1292.5z
		 M6407.8,1321.6v-25.3h-5.8v25.3H6407.8L6407.8,1321.6z M6421.9,1307.3c0-2,0.5-3.5,1.6-4.6c1.1-1.1,2.4-1.7,4.1-1.7
		c1.7,0,3,0.5,4,1.6c1,1.1,1.4,2.6,1.4,4.6v14.4h5.8v-16.1c0-3-0.8-5.3-2.3-7.1c-1.6-1.8-3.8-2.6-6.7-2.6c-1,0-1.9,0.1-2.6,0.4
		c-0.8,0.2-1.5,0.6-2.2,1c-0.6,0.4-1.2,0.9-1.7,1.4c-0.5,0.5-1,1.1-1.4,1.7v-3.9h-5.8v25.3h5.8V1307.3L6421.9,1307.3z M6450.9,1311
		h18.6c0-0.3,0.1-0.6,0.1-0.8c0-0.3,0-0.5,0-0.8c0-1.8-0.3-3.5-0.8-5.2c-0.5-1.7-1.3-3.1-2.3-4.4c-1-1.2-2.3-2.2-3.8-2.9
		c-1.5-0.8-3.3-1.1-5.3-1.1c-1.8,0-3.5,0.4-5,1.1c-1.5,0.7-2.8,1.7-3.9,2.8c-1.1,1.2-2,2.6-2.6,4.2c-0.6,1.6-0.9,3.3-0.9,5.1
		c0,2,0.3,3.8,1,5.4c0.7,1.6,1.6,3,2.7,4.1c1.2,1.1,2.5,2.1,4.1,2.7c1.6,0.7,3.3,1,5.1,1c2.3,0,4.3-0.4,6-1.3c1.7-0.9,3.1-2,4.3-3.4
		l-3.4-3c-1,1-2.1,1.7-3.1,2.2c-1.1,0.5-2.3,0.8-3.7,0.8c-1.9,0-3.5-0.6-4.8-1.7C6452.1,1314.7,6451.2,1313.1,6450.9,1311
		L6450.9,1311z M6450.8,1307.2c0.2-2,1-3.6,2.1-4.8c1.1-1.2,2.6-1.9,4.4-1.9c0.9,0,1.8,0.2,2.6,0.5c0.7,0.3,1.4,0.8,1.9,1.4
		c0.5,0.6,1,1.3,1.3,2.1c0.3,0.8,0.5,1.7,0.6,2.6H6450.8L6450.8,1307.2z M6494.1,1314.1L6494.1,1314.1c0-1.2-0.2-2.2-0.7-3
		c-0.5-0.8-1.1-1.5-1.9-2c-0.8-0.6-1.6-1.1-2.5-1.4c-0.9-0.4-1.8-0.7-2.8-1c-0.7-0.2-1.4-0.5-2.1-0.7c-0.7-0.2-1.3-0.5-1.8-0.8
		c-0.5-0.3-0.9-0.6-1.3-0.9c-0.3-0.3-0.5-0.7-0.5-1.1v-0.1c0-0.7,0.3-1.4,0.9-1.8c0.6-0.4,1.5-0.7,2.6-0.7c1.1,0,2.2,0.2,3.5,0.6
		c1.2,0.4,2.5,1,3.7,1.7l2.3-4.1c-1.4-0.9-2.8-1.6-4.5-2.1c-1.6-0.5-3.2-0.8-4.8-0.8c-1.2,0-2.4,0.2-3.5,0.5
		c-1.1,0.4-2.1,0.9-2.9,1.6c-0.8,0.7-1.4,1.5-1.9,2.4c-0.5,1-0.7,2-0.7,3.2v0.1c0,1.2,0.2,2.2,0.7,3c0.5,0.8,1.1,1.5,1.8,2.1
		c0.8,0.5,1.6,1,2.6,1.4c0.9,0.3,1.9,0.6,2.8,0.9c0.7,0.2,1.4,0.5,2.1,0.6c0.7,0.2,1.3,0.4,1.8,0.7c0.5,0.3,0.9,0.6,1.2,0.9
		c0.3,0.4,0.4,0.8,0.4,1.3v0.1c0,0.8-0.3,1.5-1,2c-0.7,0.5-1.7,0.8-2.9,0.8c-1.3,0-2.7-0.3-4.1-0.8c-1.4-0.5-2.8-1.3-4.2-2.3
		l-2.6,3.9c1.6,1.3,3.3,2.2,5.2,2.8c1.9,0.6,3.7,1,5.6,1c1.3,0,2.6-0.2,3.7-0.5c1.1-0.3,2.1-0.9,3-1.5c0.8-0.7,1.5-1.5,2-2.5
		C6493.9,1316.6,6494.1,1315.5,6494.1,1314.1L6494.1,1314.1z M6518.3,1314.1L6518.3,1314.1c0-1.2-0.2-2.2-0.7-3
		c-0.5-0.8-1.1-1.5-1.8-2c-0.8-0.6-1.6-1.1-2.5-1.4c-0.9-0.4-1.9-0.7-2.8-1c-0.7-0.2-1.5-0.5-2.1-0.7c-0.7-0.2-1.3-0.5-1.8-0.8
		c-0.5-0.3-1-0.6-1.3-0.9c-0.3-0.3-0.5-0.7-0.5-1.1v-0.1c0-0.7,0.3-1.4,1-1.8c0.6-0.4,1.5-0.7,2.6-0.7c1.1,0,2.2,0.2,3.5,0.6
		c1.2,0.4,2.5,1,3.7,1.7l2.3-4.1c-1.4-0.9-2.8-1.6-4.5-2.1c-1.6-0.5-3.2-0.8-4.8-0.8c-1.3,0-2.4,0.2-3.5,0.5
		c-1.1,0.4-2.1,0.9-2.9,1.6c-0.8,0.7-1.4,1.5-1.9,2.4c-0.5,1-0.7,2-0.7,3.2v0.1c0,1.2,0.2,2.2,0.7,3c0.5,0.8,1.1,1.5,1.8,2.1
		c0.8,0.5,1.6,1,2.6,1.4c0.9,0.3,1.9,0.6,2.8,0.9c0.7,0.2,1.4,0.5,2.1,0.6c0.7,0.2,1.3,0.4,1.8,0.7c0.5,0.3,1,0.6,1.3,0.9
		c0.3,0.4,0.5,0.8,0.5,1.3v0.1c0,0.8-0.3,1.5-1.1,2c-0.7,0.5-1.6,0.8-2.9,0.8c-1.3,0-2.7-0.3-4.1-0.8c-1.4-0.5-2.8-1.3-4.2-2.3
		l-2.6,3.9c1.6,1.3,3.3,2.2,5.2,2.8c1.9,0.6,3.7,1,5.5,1c1.3,0,2.6-0.2,3.7-0.5c1.1-0.3,2.1-0.9,3-1.5c0.8-0.7,1.5-1.5,2-2.5
		C6518.1,1316.6,6518.3,1315.5,6518.3,1314.1L6518.3,1314.1z M6551.8,1313l-8-24.9h-6.4l11.7,33.8h5.1l8.3-24.1l8.2,24.1h5.1
		l11.7-33.8h-6.1l-8,24.9l-8.2-25h-5L6551.8,1313L6551.8,1313z M6594.7,1311h18.6c0-0.3,0.1-0.6,0.1-0.8c0-0.3,0-0.5,0-0.8
		c0-1.8-0.3-3.5-0.8-5.2c-0.5-1.7-1.3-3.1-2.3-4.4c-1-1.2-2.3-2.2-3.8-2.9c-1.5-0.8-3.3-1.1-5.3-1.1c-1.8,0-3.5,0.4-5,1.1
		c-1.5,0.7-2.8,1.7-3.9,2.8c-1.1,1.2-2,2.6-2.6,4.2c-0.6,1.6-0.9,3.3-0.9,5.1c0,2,0.3,3.8,1,5.4c0.7,1.6,1.6,3,2.7,4.1
		c1.2,1.1,2.5,2.1,4.1,2.7c1.6,0.7,3.3,1,5.1,1c2.3,0,4.3-0.4,6-1.3c1.7-0.9,3.1-2,4.3-3.4l-3.4-3c-1,1-2.1,1.7-3.1,2.2
		c-1.1,0.5-2.3,0.8-3.7,0.8c-1.9,0-3.5-0.6-4.8-1.7C6595.9,1314.7,6595.1,1313.1,6594.7,1311L6594.7,1311z M6594.7,1307.2
		c0.2-2,1-3.6,2.1-4.8c1.1-1.2,2.6-1.9,4.4-1.9c0.9,0,1.8,0.2,2.6,0.5c0.7,0.3,1.4,0.8,1.9,1.4c0.5,0.6,1,1.3,1.3,2.1
		c0.3,0.8,0.5,1.7,0.6,2.6H6594.7L6594.7,1307.2z M6646.1,1309c0-2.1-0.4-3.9-1-5.6c-0.7-1.6-1.5-3-2.6-4.2c-1.1-1.1-2.3-2-3.7-2.5
		c-1.4-0.6-2.9-0.9-4.4-0.9c-2,0-3.7,0.5-5.1,1.4c-1.4,0.9-2.5,2-3.4,3.4v-13.9h-5.8v35h5.8v-3.9c0.9,1.1,2,2.2,3.4,3.1
		c1.4,0.9,3.1,1.3,5.2,1.3c1.5,0,3-0.3,4.4-0.9c1.4-0.6,2.7-1.4,3.8-2.6c1.1-1.1,2-2.5,2.6-4.1
		C6645.8,1313,6646.1,1311.1,6646.1,1309L6646.1,1309z M6640.2,1309c0,1.3-0.2,2.4-0.6,3.4c-0.4,1-0.9,1.8-1.5,2.6
		c-0.7,0.7-1.4,1.2-2.3,1.6c-0.9,0.4-1.8,0.6-2.8,0.6c-1,0-1.9-0.2-2.8-0.6c-0.9-0.4-1.7-1-2.4-1.7c-0.7-0.7-1.2-1.6-1.6-2.6
		c-0.4-1-0.6-2.1-0.6-3.4c0-1.2,0.2-2.4,0.6-3.4c0.4-1,0.9-1.8,1.6-2.6c0.7-0.7,1.4-1.3,2.4-1.6c0.9-0.4,1.8-0.6,2.8-0.6
		c1,0,1.9,0.2,2.8,0.6c0.9,0.4,1.7,0.9,2.3,1.6c0.6,0.7,1.2,1.5,1.5,2.6C6640,1306.6,6640.2,1307.7,6640.2,1309L6640.2,1309z
		 M6670.8,1314.1L6670.8,1314.1c0-1.2-0.2-2.2-0.7-3c-0.5-0.8-1.1-1.5-1.8-2c-0.8-0.6-1.6-1.1-2.5-1.4c-0.9-0.4-1.8-0.7-2.8-1
		c-0.7-0.2-1.4-0.5-2.1-0.7c-0.7-0.2-1.3-0.5-1.8-0.8c-0.5-0.3-1-0.6-1.3-0.9c-0.3-0.3-0.5-0.7-0.5-1.1v-0.1c0-0.7,0.3-1.4,1-1.8
		c0.6-0.4,1.5-0.7,2.6-0.7c1.1,0,2.2,0.2,3.5,0.6c1.2,0.4,2.4,1,3.7,1.7l2.3-4.1c-1.4-0.9-2.8-1.6-4.5-2.1c-1.6-0.5-3.2-0.8-4.8-0.8
		c-1.3,0-2.4,0.2-3.5,0.5c-1.1,0.4-2.1,0.9-2.9,1.6c-0.8,0.7-1.4,1.5-1.9,2.4c-0.5,1-0.7,2-0.7,3.2v0.1c0,1.2,0.2,2.2,0.7,3
		c0.5,0.8,1.1,1.5,1.8,2.1c0.8,0.5,1.6,1,2.6,1.4c0.9,0.3,1.9,0.6,2.8,0.9c0.7,0.2,1.5,0.5,2.1,0.6c0.7,0.2,1.3,0.4,1.8,0.7
		c0.5,0.3,1,0.6,1.3,0.9c0.3,0.4,0.4,0.8,0.4,1.3v0.1c0,0.8-0.3,1.5-1,2c-0.7,0.5-1.7,0.8-2.9,0.8c-1.3,0-2.6-0.3-4.1-0.8
		c-1.4-0.5-2.8-1.3-4.2-2.3l-2.6,3.9c1.6,1.3,3.3,2.2,5.2,2.8c1.9,0.6,3.7,1,5.5,1c1.3,0,2.6-0.2,3.7-0.5c1.1-0.3,2.1-0.9,3-1.5
		c0.9-0.7,1.5-1.5,2-2.5C6670.6,1316.6,6670.8,1315.5,6670.8,1314.1L6670.8,1314.1z M6683.7,1292.5v-5.5h-6.2v5.5H6683.7
		L6683.7,1292.5z M6683.5,1321.6v-25.3h-5.8v25.3H6683.5L6683.5,1321.6z M6698.8,1301.3h6.8v-5h-6.8v-7h-5.8v7h-3.2v5h3.2v13.3
		c0,1.4,0.1,2.6,0.5,3.5c0.4,1,0.9,1.7,1.5,2.3c0.6,0.6,1.4,1,2.3,1.2c0.9,0.3,1.9,0.4,2.9,0.4c1.1,0,2-0.1,2.9-0.3
		c0.8-0.2,1.6-0.5,2.4-1v-4.7c-1.2,0.6-2.4,0.9-3.6,0.9c-1,0-1.8-0.2-2.3-0.7c-0.5-0.5-0.8-1.3-0.8-2.4V1301.3L6698.8,1301.3z
		 M6715.8,1311h18.6c0-0.3,0.1-0.6,0.1-0.8c0-0.3,0-0.5,0-0.8c0-1.8-0.2-3.5-0.8-5.2c-0.5-1.7-1.3-3.1-2.3-4.4
		c-1-1.2-2.3-2.2-3.8-2.9c-1.5-0.8-3.3-1.1-5.3-1.1c-1.8,0-3.5,0.4-5,1.1c-1.5,0.7-2.8,1.7-3.9,2.8c-1.1,1.2-2,2.6-2.6,4.2
		c-0.6,1.6-0.9,3.3-0.9,5.1c0,2,0.3,3.8,1,5.4c0.7,1.6,1.6,3,2.7,4.1c1.2,1.1,2.6,2.1,4.1,2.7c1.6,0.7,3.3,1,5.1,1
		c2.3,0,4.3-0.4,6-1.3c1.7-0.9,3.1-2,4.3-3.4l-3.4-3c-1,1-2.1,1.7-3.1,2.2c-1.1,0.5-2.3,0.8-3.7,0.8c-1.9,0-3.5-0.6-4.8-1.7
		C6717,1314.7,6716.2,1313.1,6715.8,1311L6715.8,1311z M6715.8,1307.2c0.2-2,1-3.6,2.1-4.8c1.1-1.2,2.6-1.9,4.4-1.9
		c0.9,0,1.8,0.2,2.6,0.5c0.8,0.3,1.4,0.8,1.9,1.4c0.5,0.6,1,1.3,1.3,2.1c0.3,0.8,0.5,1.7,0.6,2.6H6715.8z"/>
	<path class="st7" d="M6089.7,831.9h-61.4c-1.5,0-2.9,0.6-3.9,1.6c-1,1-1.6,2.4-1.6,3.9v61.4c0,1.5,0.6,2.9,1.6,3.9l0,0
		c1,1,2.4,1.6,3.9,1.6h61.4c1.5,0,2.9-0.6,3.9-1.6c1-1,1.6-2.4,1.6-3.9v-61.4c0-1.5-0.6-2.9-1.6-3.9
		C6092.7,832.6,6091.3,831.9,6089.7,831.9z"/>
	<path class="st7" d="M6089.7,999h-61.4c-1.5,0-2.9,0.6-3.9,1.6c-1,1-1.6,2.4-1.6,3.9v61.4c0,1.5,0.6,2.9,1.6,4v0
		c1,1,2.4,1.7,3.9,1.7h61.4c1.5,0,2.9-0.6,3.9-1.7c1-1,1.6-2.4,1.6-3.9v-61.4c0-1.5-0.6-3-1.6-3.9
		C6092.7,999.7,6091.3,999,6089.7,999z"/>
	<path class="st7" d="M6089.7,1133.6h-61.4c-1.5,0-2.9,0.6-3.9,1.6c-1,1-1.6,2.4-1.6,3.9v61.4c0,1.5,0.6,2.9,1.6,3.9l0,0
		c1,1,2.4,1.6,3.9,1.6h61.4c1.5,0,2.9-0.6,3.9-1.6c1-1,1.6-2.4,1.6-3.9v-61.4c0-1.5-0.6-2.9-1.6-3.9
		C6092.7,1134.2,6091.3,1133.6,6089.7,1133.6z"/>
	<path class="st7" d="M6089.7,1268.2h-61.4c-1.5,0-2.9,0.6-3.9,1.7c-1,1-1.6,2.4-1.6,3.9v61.4c0,1.5,0.6,2.9,1.6,3.9l0,0
		c1,1,2.4,1.6,3.9,1.6h61.4c1.5,0,2.9-0.6,3.9-1.6c1-1,1.6-2.4,1.6-3.9v-61.4c0-1.5-0.6-2.9-1.6-3.9
		C6092.7,1268.8,6091.3,1268.2,6089.7,1268.2z"/>
	<path d="M6040.8,1154.3h36.5c1.3,0,2.4,1.1,2.4,2.4v26.4c0,1.3-1.1,2.4-2.4,2.4h-36.5c-1.3,0-2.4-1.1-2.4-2.4v-26.4
		C6038.4,1155.4,6039.5,1154.3,6040.8,1154.3L6040.8,1154.3z M6057.7,1171.9L6057.7,1171.9c0.3,0.3,0.8,0.5,1.3,0.5
		c0.6,0,1-0.2,1.3-0.5l14.5-14.7h-31.7L6057.7,1171.9L6057.7,1171.9z M6066.4,1169.8L6066.4,1169.8l10.4,10.7v-21.3L6066.4,1169.8
		L6066.4,1169.8z M6064.3,1171.9L6064.3,1171.9l-2,2c-0.9,0.9-2.2,1.4-3.4,1.4c-1.2,0-2.4-0.4-3.3-1.3l-2-2l-10.4,10.6h31.5
		L6064.3,1171.9L6064.3,1171.9z M6051.7,1169.9L6051.7,1169.9l-10.3-10.4v21L6051.7,1169.9z"/>
	<path d="M6075.5,1016.2c-1.9-1.5-10.7-4.8-25.1,9.3c-15.3,14.9-12,24.5-10.3,26.1l9.9-10c-1.4-1.4-0.2-3.2,2.6-6.6
		c1.8-2.3,4.3-4.9,7.1-7.1c2-1.6,4-3,5.5-1.5L6075.5,1016.2L6075.5,1016.2z M6068.9,1030L6068.9,1030l-2.8-2.8l10.2-10.2l2.8,2.8
		c0.6,0.6,0.6,1.6,0,2.2l-8,8l0,0C6070.5,1030.6,6069.5,1030.7,6068.9,1030L6068.9,1030z M6043.6,1055.3L6043.6,1055.3l-2.8-2.8
		l10-10l2.8,2.8c0.6,0.6,0.6,1.6,0,2.2l-7.7,7.8l0,0C6045.2,1055.9,6044.3,1056,6043.6,1055.3z"/>
	<path d="M6039.3,1296.1c1.6-3.9,4.3-7.1,7.8-9.4c1.7-1.1,3.6-2.1,5.6-2.7c1.7-0.5,3.4-0.8,5.2-0.9v0h0.1l0,0h0.8c0.1,0,0.2,0,0.3,0
		c0.1,0,0.2,0,0.3,0h0.8l0,0c2.6,0.2,5,0.7,7.2,1.7c3.8,1.6,7.1,4.3,9.4,7.8c1.1,1.7,2.1,3.6,2.7,5.6c0.6,2,1,4.2,1,6.4
		c0,3-0.6,5.8-1.7,8.4c-1.6,3.9-4.3,7.1-7.8,9.4c-1.7,1.1-3.6,2.1-5.6,2.7c-1.7,0.5-3.6,0.9-5.5,1l0,0c-0.1,0-0.1,0-0.2,0
		c-0.2,0-0.4,0-0.6,0c-0.3,0-0.6,0-0.9,0c-0.1,0-0.3,0-0.4,0v0c-2.5-0.2-4.9-0.7-7.1-1.7c-3.8-1.6-7.1-4.4-9.4-7.8
		c-1.1-1.7-2.1-3.6-2.7-5.6c-0.6-2-1-4.2-1-6.4C6037.7,1301.4,6038.2,1298.6,6039.3,1296.1L6039.3,1296.1z M6039.9,1303.3
		L6039.9,1303.3h2.4c0.1-2.5,0.6-4.9,1.3-7.1c0.1-0.2,0.2-0.5,0.3-0.8h-1.8c-0.5,1-1,2.1-1.3,3.2
		C6040.2,1300.1,6040,1301.7,6039.9,1303.3L6039.9,1303.3z M6046.1,1313.3L6046.1,1313.3h4.6c-0.5-2.4-0.8-5-0.9-7.8h-5.4
		c0.1,2.3,0.5,4.4,1.2,6.4C6045.8,1312.4,6046,1312.8,6046.1,1313.3L6046.1,1313.3z M6071.8,1312.7L6071.8,1312.7
		c0.9-2.2,1.4-4.6,1.5-7.2h-5.4c0,2.4-0.3,4.8-0.7,6.9c-0.1,0.3-0.1,0.6-0.2,0.9h4.5C6071.7,1313.1,6071.8,1312.9,6071.8,1312.7
		L6071.8,1312.7z M6071.6,1295.5L6071.6,1295.5h-4.5c0.5,2.4,0.9,5.1,0.9,7.8h5.4c-0.1-2.2-0.5-4.4-1.2-6.4
		C6072,1296.4,6071.8,1296,6071.6,1295.5L6071.6,1295.5z M6052.8,1295.9L6052.8,1295.9c-0.5,2.3-0.8,4.8-0.9,7.4h6v-7.8h-5.1
		C6052.9,1295.6,6052.9,1295.8,6052.8,1295.9L6052.8,1295.9z M6052.9,1313.3L6052.9,1313.3h5.1v-7.8h-6c0.1,2.3,0.3,4.5,0.7,6.5
		C6052.7,1312.4,6052.8,1312.8,6052.9,1313.3L6052.9,1313.3z M6064.9,1313L6064.9,1313c0.5-2.3,0.8-4.8,0.9-7.5h-5.6v7.8h4.7
		C6064.9,1313.2,6064.9,1313.1,6064.9,1313L6064.9,1313z M6064.8,1295.5L6064.8,1295.5h-4.7v7.8h5.6c-0.1-2.2-0.3-4.4-0.7-6.4
		C6065,1296.4,6064.9,1296,6064.8,1295.5L6064.8,1295.5z M6061.4,1287.6L6061.4,1287.6c-0.4-0.5-0.8-0.9-1.2-1.3v7h4.1
		c-0.1-0.4-0.3-0.8-0.4-1.1c-0.4-1.1-0.9-2.1-1.3-2.9C6062.1,1288.7,6061.8,1288.1,6061.4,1287.6L6061.4,1287.6z M6060.2,1315.5
		L6060.2,1315.5v7.1c0.1-0.1,0.2-0.1,0.2-0.2c0.8-0.7,1.5-1.6,2.1-2.8c0.7-1.1,1.3-2.6,1.8-4.1H6060.2L6060.2,1315.5z
		 M6056.4,1321.3L6056.4,1321.3c0.5,0.6,1.1,1.1,1.6,1.5v-7.4h-4.5c0.1,0.4,0.3,0.9,0.4,1.3c0.4,1.1,0.8,2,1.3,2.9
		C6055.6,1320.3,6056,1320.8,6056.4,1321.3L6056.4,1321.3z M6058,1293.3L6058,1293.3v-7.3c-0.2,0.1-0.5,0.3-0.7,0.5
		c-0.8,0.7-1.5,1.6-2.1,2.8c-0.6,1.1-1.2,2.4-1.7,3.9H6058L6058,1293.3z M6051.9,1291.4L6051.9,1291.4c0.4-1.2,0.9-2.2,1.4-3.2
		c0.4-0.6,0.8-1.2,1.2-1.8c-0.2,0.1-0.4,0.2-0.6,0.3c-1.4,0.7-2.7,1.7-3.8,2.9c-1.1,1.1-2,2.3-2.8,3.7h4
		C6051.4,1292.7,6051.7,1292,6051.9,1291.4L6051.9,1291.4z M6066.5,1288.5L6066.5,1288.5c-1-0.8-2.1-1.5-3.3-2.1
		c0.4,0.6,0.9,1.2,1.2,1.8c0.8,1.4,1.5,3.1,2,5h4C6069.4,1291.4,6068,1289.8,6066.5,1288.5L6066.5,1288.5z M6066.5,1315.5
		L6066.5,1315.5c-0.2,0.7-0.4,1.4-0.7,2.1c-0.5,1.2-0.9,2.2-1.5,3.2c-0.3,0.6-0.7,1.1-1.1,1.6c0.2-0.1,0.3-0.1,0.4-0.2
		c1.4-0.8,2.7-1.7,3.9-2.9c1.1-1.1,2.1-2.4,2.9-3.7H6066.5L6066.5,1315.5z M6051.3,1320.3L6051.3,1320.3c1,0.8,2,1.5,3.1,2
		c-0.4-0.5-0.7-1.1-1.1-1.7c-0.8-1.5-1.6-3.3-2.1-5.2h-4C6048.3,1317.4,6049.7,1319,6051.3,1320.3L6051.3,1320.3z M6049.8,1303.3
		L6049.8,1303.3c0.1-2.4,0.3-4.7,0.7-6.8c0.1-0.4,0.1-0.7,0.2-1.1h-4.6c-0.1,0.2-0.2,0.4-0.2,0.6c-0.9,2.2-1.4,4.6-1.5,7.2H6049.8
		L6049.8,1303.3z M6043.3,1293.3L6043.3,1293.3h1.5c0.9-1.7,2-3.3,3.2-4.7C6046.2,1289.9,6044.6,1291.5,6043.3,1293.3L6043.3,1293.3
		z M6069.8,1288.4L6069.8,1288.4c-0.2-0.2-0.4-0.3-0.7-0.4l0.1,0.1c1.4,1.5,2.7,3.3,3.7,5.2h1.8
		C6073.4,1291.4,6071.7,1289.7,6069.8,1288.4L6069.8,1288.4z M6076.8,1296.9L6076.8,1296.9c-0.2-0.5-0.4-1-0.7-1.4h-2.2
		c0.9,2.4,1.5,5.1,1.6,7.8h2.7C6078.1,1301,6077.6,1298.9,6076.8,1296.9L6076.8,1296.9z M6078.3,1305.5L6078.3,1305.5h-2.7
		c-0.1,2.5-0.6,4.9-1.3,7.1c-0.1,0.2-0.2,0.4-0.2,0.7h2.2c0.5-1,0.9-2,1.3-3.1C6077.9,1308.7,6078.2,1307.1,6078.3,1305.5
		L6078.3,1305.5z M6074.8,1315.5L6074.8,1315.5h-1.8c-1,2-2.3,3.8-3.9,5.4C6071.3,1319.4,6073.3,1317.6,6074.8,1315.5L6074.8,1315.5
		z M6048,1320.2L6048,1320.2c-1.3-1.4-2.4-3-3.3-4.7h-1.5C6044.6,1317.3,6046.2,1318.9,6048,1320.2L6048,1320.2z M6041.3,1311.9
		L6041.3,1311.9c0.2,0.4,0.4,0.9,0.6,1.4h1.8c-0.9-2.4-1.5-5-1.6-7.8h-2.4C6040,1307.8,6040.5,1309.9,6041.3,1311.9z"/>
	<path class="st8" d="M6059,849.1c4.9,0,8.8,4,8.8,8.9c0,4.9-4,8.8-8.8,8.8s-8.8-4-8.8-8.8C6050.2,853.1,6054.2,849.1,6059,849.1
		L6059,849.1z M6059,891.7c4,0,7.2,0.5,7.2,1.1c0,0.7-3.2,1.1-7.2,1.1c-4,0-7.2-0.5-7.2-1.1C6051.8,892.2,6055.1,891.7,6059,891.7
		L6059,891.7z M6059,889.1l11.5-21.8c3.1-5.9,4.5-12.3,0.2-18c-2.6-3.6-6.9-5.9-11.7-5.9c-4.8,0-9,2.3-11.7,5.9
		c-4.3,5.7-2.9,12.1,0.2,18L6059,889.1z"/>
	<g>
		<g>
			<path class="st2" d="M1753.9,1550.1c57.4,63.2,145.9,105.4,231.5,133.2c64.3,20.8,130,41.9,185.8,72.2
				c49.2,26.7,90.6,60.5,116.6,107.5c10.5,18.9,18.4,40,23.3,63.6c2.5-14.3,4.2-28.1,5-41.2c8.7-133.6-64.9-207.4-160.5-262.1
				c-40.1-23-84.2-42.7-127.5-62c-15.3-6.8-30.6-13.6-45.6-20.5c-75.4-34.6-143.7-71.6-179.7-127.9c-67.7-105.7,8-227.7,115.3-258.1
				c133.2-37.7,245.4,31.6,319.5,139.8c12.9,18.1,24.7,39.2,35.6,63.1c3.2,7,6.4,14.7,9.7,23.1h42.5l-4.3-262.2h-20.5
				c-15.9,24.1-30.6,41.4-43.7,52.3c-13.3,10.8-26.6,16.2-40.5,16.2c-13.3,0-36.5-8.4-69.6-25.1c-94.1-46.6-184-60.8-279.2-21.3
				c-59.9,24.9-109.9,67.9-141.5,120.5c-18.6-50.8-49.2-94.9-99-121.6c-73.3-39.7-171.5-31.7-247.8-6.6l9,19.8
				c81.3-22.5,157.2,18.6,190.4,95.9c21.1,49.2,17.9,106.3-6.1,146.2c-49.6,82.5-203.8,95.1-301,152.7
				c-60.8,36-110.8,84.1-130.6,147.9c-38,122.3,35.9,245.8,151,293.6c87,36.2,170.5,20.7,256.4-21.9c95.4-48.2,157.1,30.4,250,2.7
				c54.4-16.3,101.8-56.6,114.4-114.3l-23.4-9c-11.4,41.5-57,62.1-93.7,35.1c-37.6-27.7-41.4-81.3-41.4-124V1550.1L1753.9,1550.1z
				 M1591.7,1581.7v204.2c0,126.7-100.5,230.7-252.5,187.6c-98-27.7-167.1-139.2-105.3-235.7c32.9-51.4,95.3-85.2,164.2-116.8
				c13.7-6.3,27.6-12.5,41.7-18.8c39.6-17.7,79.8-35.6,116.5-56.7c91.1-52.2,136.2-120.6,157.2-221
				C1727.2,1435.6,1691.2,1507.5,1591.7,1581.7z"/>
			<path class="st2" d="M1282.4,1402.4c30.6-3.2,55.7-22.6,67.6-50.7c11.5-28,7.5-59.6-10.5-83.8c-11.1-13.8-22.7-21.3-39.5-25.5
				c-11.3-2.8-22.1-6.1-17.3-18.4c3.1-7.8,11.1-17.1,24.3-28.2l-10.8-19.8c-34.8,23.5-69.5,53.2-91.2,89.7c-10.7,18-17,37.8-14.8,59
				C1195,1372.2,1235.1,1407.3,1282.4,1402.4z"/>
		</g>
		<g>
			<path class="st9" d="M865.7,2125.1h-57.1v127.4h58.9c7.1,0,13.5-0.8,19.3-2.3c5.8-1.5,10.8-3.7,14.9-6.7c4.1-3,7.3-6.6,9.6-11
				c2.2-4.4,3.3-9.4,3.3-15.1c0-4.4-0.6-8.2-1.8-11.5c-1.2-3.4-3-6.2-5.2-8.6c-2.2-2.4-4.9-4.5-8-6.3c-3.1-1.8-6.5-3.3-10.3-4.6
				c2.3-1.2,4.6-2.7,6.8-4.4c2.2-1.7,4.2-3.7,5.8-5.9c1.6-2.2,2.9-4.9,4-7.9c1-3,1.5-6.5,1.5-10.4c0-10.1-3.8-18-11.3-23.8
				C888.7,2128,878.5,2125.1,865.7,2125.1L865.7,2125.1z M861.1,2178.8h-30.5v-33.8h32.2c7.3,0,12.8,1.4,16.6,4.3
				c3.8,2.8,5.7,6.9,5.7,12.1c0,5.9-2.2,10.3-6.6,13.2C874.2,2177.4,868.4,2178.8,861.1,2178.8L861.1,2178.8z M867.7,2232.6h-37.1
				v-34.9H866c8.9,0,15.4,1.5,19.7,4.6c4.3,3,6.5,7.3,6.5,12.7c0,5.8-2.2,10.2-6.5,13.2C881.3,2231.2,875.3,2232.6,867.7,2232.6
				L867.7,2232.6z M1123.7,2252.5l-34.4-48.2c4.5-1.2,8.6-3,12.3-5.2c3.7-2.3,6.9-5,9.6-8.2c2.7-3.2,4.8-6.9,6.3-11.1
				c1.5-4.2,2.3-8.9,2.3-14.3c0-6.2-1.1-11.8-3.3-16.8c-2.2-5-5.3-9.3-9.4-12.8c-4.1-3.4-9-6.1-14.9-8c-5.9-1.9-12.5-2.8-19.7-2.8
				h-56.8v127.4h22.4v-44.4h28l31.3,44.4H1123.7L1123.7,2252.5z M1096.9,2166.8c0,6.5-2.4,11.8-7.1,15.6c-4.7,3.9-11.1,5.8-19.1,5.8
				H1038v-42.8h32.6c8.4,0,14.9,1.8,19.5,5.4C1094.6,2154.4,1096.9,2159.8,1096.9,2166.8L1096.9,2166.8z M1288.7,2124.2h-20.7
				l-56.1,128.3h22.9l13.1-30.8h60.2l12.9,30.8h23.6L1288.7,2124.2L1288.7,2124.2z M1299.9,2201.9h-43.8l21.8-50.9L1299.9,2201.9
				L1299.9,2201.9z M1531.2,2213.2l-68.2-88.1h-20.7v127.4h22v-90.6l70.2,90.6h18.7v-127.4h-22V2213.2L1531.2,2213.2z
				 M1776.8,2188.6c0-9-1.7-17.3-4.9-25.1c-3.3-7.8-7.9-14.5-13.9-20.2c-6-5.7-13.1-10.1-21.5-13.3c-8.3-3.2-17.4-4.8-27.4-4.8
				h-47.5v127.4h47.5c10,0,19.1-1.6,27.4-4.9c8.3-3.3,15.5-7.8,21.5-13.5c6-5.7,10.6-12.5,13.9-20.3
				C1775.1,2206,1776.8,2197.6,1776.8,2188.6L1776.8,2188.6z M1753.4,2189c0,6.3-1.1,12.1-3.2,17.4c-2.1,5.3-5.1,9.8-8.9,13.7
				c-3.8,3.8-8.4,6.8-13.9,8.9c-5.5,2.1-11.5,3.2-18.2,3.2H1684v-86.6h25.1c6.7,0,12.8,1.1,18.2,3.3c5.5,2.2,10.1,5.2,13.9,9.1
				c3.8,3.9,6.8,8.5,8.9,13.7C1752.3,2176.9,1753.4,2182.7,1753.4,2189L1753.4,2189z M1968.6,2213.2l-68.2-88.1h-20.7v127.4h22
				v-90.6l70.2,90.6h18.8v-127.4h-22V2213.2L1968.6,2213.2z M2164.9,2124.2h-20.7l-56,128.3h22.9l13.1-30.8h60.2l12.9,30.8h23.7
				L2164.9,2124.2L2164.9,2124.2z M2176.2,2201.9h-43.9l21.8-50.9L2176.2,2201.9L2176.2,2201.9z M2421.2,2161.1v91.3h22.4v-127.4
				h-23.8l-38.8,60.2l-38.8-60.2h-23.8v127.4h22v-91l39.8,59.7h0.7L2421.2,2161.1L2421.2,2161.1z M2646.5,2125.1h-94.4v127.4h95.3
				v-20h-73v-34.2h63.9v-20h-63.9v-33.1h72.1V2125.1z"/>
			<path class="st9" d="M1247.6,2314.8h17.9v-9.3h-46v9.3h18v47.4h10V2314.8L1247.6,2314.8z M1339,2305.1h-9.2l-24.9,57.1h10.2
				l5.8-13.7h26.8l5.7,13.7h10.5L1339,2305.1L1339,2305.1z M1344,2339.7h-19.5l9.7-22.7L1344,2339.7L1344,2339.7z M1461.5,2354.3
				v-23.8h-24.1v8.6h14.5v10.6c-1.7,1.3-3.8,2.3-6.1,3.1c-2.4,0.8-4.9,1.2-7.6,1.2c-2.9,0-5.5-0.5-7.9-1.5c-2.4-1-4.4-2.4-6.1-4.3
				c-1.7-1.8-3-3.9-3.9-6.4c-0.9-2.5-1.4-5.2-1.4-8.1c0-2.7,0.5-5.3,1.4-7.8c1-2.4,2.3-4.6,3.9-6.4c1.7-1.8,3.6-3.3,5.9-4.3
				c2.2-1.1,4.6-1.6,7.2-1.6c1.8,0,3.4,0.1,4.9,0.4c1.5,0.3,2.9,0.7,4.1,1.2s2.4,1.1,3.6,1.9c1.1,0.8,2.2,1.6,3.3,2.5l6.3-7.5
				c-1.4-1.2-3-2.3-4.5-3.3c-1.6-1-3.2-1.8-4.9-2.4c-1.7-0.6-3.6-1.1-5.6-1.5c-2-0.4-4.3-0.5-6.8-0.5c-4.2,0-8.2,0.8-11.8,2.3
				c-3.6,1.6-6.7,3.7-9.3,6.4c-2.6,2.7-4.6,5.8-6,9.3c-1.4,3.6-2.1,7.3-2.1,11.3c0,4.2,0.7,8,2.1,11.6c1.4,3.6,3.4,6.6,5.9,9.3
				c2.6,2.6,5.7,4.7,9.3,6.1c3.6,1.5,7.6,2.2,12,2.2c2.5,0,4.9-0.2,7.1-0.7c2.3-0.5,4.4-1.1,6.4-1.9c2-0.8,3.8-1.8,5.5-2.8
				C1458.6,2356.6,1460.1,2355.5,1461.5,2354.3L1461.5,2354.3z M1515.4,2362.2h39.7v-9.1h-29.8v-47.6h-9.9V2362.2L1515.4,2362.2z
				 M1606.9,2305.5v56.7h9.9v-56.7H1606.9L1606.9,2305.5z M1712.5,2344.7l-30.4-39.2h-9.2v56.7h9.8v-40.3l31.2,40.3h8.4v-56.7h-9.8
				V2344.7L1712.5,2344.7z M1819.7,2305.5h-42v56.7h42.4v-8.9h-32.5V2338h28.4v-8.9h-28.4v-14.7h32V2305.5L1819.7,2305.5z
				 M1934.1,2338.3v23.9h9.9v-56.7h-9.9v23.6h-27v-23.6h-9.9v56.7h9.9v-23.9H1934.1L1934.1,2338.3z M2041.4,2305.5h-42v56.7h42.4
				v-8.9h-32.5V2338h28.4v-8.9h-28.4v-14.7h32V2305.5L2041.4,2305.5z M2142.6,2362.2l-15.3-21.5c2-0.5,3.8-1.3,5.5-2.3
				c1.7-1,3.1-2.2,4.3-3.6c1.2-1.4,2.1-3.1,2.8-4.9c0.7-1.9,1-4,1-6.4c0-2.7-0.5-5.2-1.4-7.5c-1-2.2-2.4-4.1-4.2-5.7
				c-1.8-1.5-4-2.7-6.6-3.6c-2.6-0.8-5.6-1.3-8.8-1.3h-25.2v56.7h9.9v-19.8h12.5l13.9,19.8H2142.6L2142.6,2362.2z M2130.7,2324.1
				c0,2.9-1.1,5.2-3.2,6.9c-2.1,1.7-4.9,2.6-8.5,2.6h-14.6v-19h14.5c3.7,0,6.6,0.8,8.6,2.4
				C2129.7,2318.6,2130.7,2320.9,2130.7,2324.1L2130.7,2324.1z M2235.9,2305.5h-42v56.7h42.4v-8.9h-32.5V2338h28.4v-8.9h-28.4v-14.7
				h32V2305.5z"/>
		</g>
	</g>
	<g>
		<path class="st2" d="M3975,1732.7c19.9,21.9,50.5,36.5,80.1,46.1c22.3,7.2,45,14.5,64.3,25c17,9.2,31.4,20.9,40.4,37.2
			c3.6,6.5,6.4,13.8,8.1,22c0.9-4.9,1.4-9.7,1.8-14.3c3-46.2-22.5-71.8-55.6-90.8c-13.9-8-29.2-14.8-44.2-21.5
			c-5.3-2.4-10.6-4.7-15.8-7.1c-26.1-12-49.7-24.8-62.2-44.3c-23.4-36.6,2.7-78.9,39.9-89.4c46.1-13,85,11,110.6,48.4
			c4.5,6.2,8.6,13.6,12.3,21.9c1.1,2.4,2.2,5.1,3.4,8h14.7l-1.5-90.8h-7.1c-5.5,8.3-10.6,14.3-15.1,18.1c-4.6,3.7-9.2,5.6-14,5.6
			c-4.6,0-12.6-2.9-24.1-8.7c-32.6-16.1-63.7-21.1-96.7-7.4c-20.7,8.6-38,23.5-49,41.7c-6.4-17.6-17-32.8-34.3-42.1
			c-25.4-13.8-59.4-10.9-85.8-2.3l3.1,6.9c28.1-7.8,54.5,6.4,65.9,33.2c7.3,17,6.2,36.8-2.1,50.6c-17.2,28.5-70.6,32.9-104.2,52.8
			c-21,12.5-38.3,29.1-45.2,51.2c-13.1,42.3,12.5,85.1,52.3,101.6c30.1,12.5,59,7.1,88.8-7.6c33-16.7,54.4,10.5,86.5,0.9
			c18.8-5.6,35.3-19.6,39.6-39.6l-8.1-3.1c-3.9,14.4-19.7,21.5-32.4,12.2c-13-9.6-14.3-28.2-14.3-43V1732.7L3975,1732.7z
			 M3918.9,1743.7v70.7c0,43.8-34.8,79.8-87.4,64.9c-33.9-9.6-57.9-48.2-36.5-81.6c11.4-17.8,33-29.5,56.8-40.4
			c4.7-2.2,9.6-4.3,14.4-6.5c13.7-6.1,27.7-12.3,40.3-19.6c31.5-18.1,47.1-41.8,54.4-76.5C3965.8,1693.1,3953.3,1718,3918.9,1743.7z
			"/>
		<path class="st2" d="M3811.8,1681.6c10.6-1.1,19.3-7.8,23.4-17.6c4-9.7,2.6-20.6-3.6-29c-3.8-4.8-7.8-7.4-13.7-8.8
			c-3.9-1-7.7-2.1-6-6.4c1.1-2.7,3.8-5.9,8.4-9.8l-3.7-6.9c-12,8.1-24.1,18.4-31.6,31.1c-3.7,6.2-5.9,13.1-5.1,20.4
			C3781.5,1671.1,3795.4,1683.3,3811.8,1681.6z"/>
	</g>
	<g>
		<path class="st3" d="M3975,619.4c19.9,21.9,50.5,36.5,80.1,46.1c22.3,7.2,45,14.5,64.3,25c17,9.2,31.4,20.9,40.4,37.2
			c3.6,6.5,6.4,13.8,8.1,22c0.9-5,1.4-9.7,1.8-14.3c3-46.2-22.5-71.8-55.6-90.7c-13.9-8-29.2-14.8-44.2-21.5
			c-5.3-2.4-10.6-4.7-15.8-7.1c-26.1-12-49.7-24.8-62.2-44.3c-23.4-36.6,2.7-78.9,39.9-89.4c46.1-13.1,85,10.9,110.6,48.4
			c4.5,6.2,8.6,13.6,12.3,21.9c1.1,2.4,2.2,5.1,3.4,8h14.7l-1.5-90.8h-7.1c-5.5,8.4-10.6,14.4-15.1,18.1c-4.6,3.8-9.2,5.6-14,5.6
			c-4.6,0-12.6-2.9-24.1-8.7c-32.6-16.2-63.7-21.1-96.7-7.4c-20.7,8.6-38,23.5-49,41.7c-6.4-17.6-17-32.8-34.3-42.1
			c-25.4-13.7-59.4-10.9-85.8-2.3l3.1,6.9c28.1-7.8,54.5,6.5,65.9,33.2c7.3,17,6.2,36.8-2.1,50.6c-17.2,28.6-70.6,32.9-104.2,52.8
			c-21,12.5-38.3,29.1-45.2,51.2c-13.1,42.3,12.5,85.1,52.3,101.6c30.1,12.5,59,7.2,88.8-7.6c33-16.7,54.4,10.5,86.5,0.9
			c18.8-5.6,35.3-19.6,39.6-39.6l-8.1-3.1c-3.9,14.3-19.7,21.5-32.4,12.1c-13-9.6-14.3-28.2-14.3-42.9V619.4L3975,619.4z
			 M3918.9,630.3V701c0,43.8-34.8,79.8-87.4,64.9c-33.9-9.6-57.9-48.2-36.5-81.6c11.4-17.8,33-29.5,56.8-40.5
			c4.7-2.2,9.6-4.3,14.4-6.5c13.7-6.1,27.7-12.3,40.3-19.6c31.5-18.1,47.1-41.8,54.4-76.6C3965.8,579.8,3953.3,604.7,3918.9,630.3z"
			/>
		<path class="st3" d="M3811.8,568.3c10.6-1.1,19.3-7.8,23.4-17.6c4-9.7,2.6-20.6-3.6-29c-3.8-4.8-7.8-7.4-13.7-8.8
			c-3.9-1-7.7-2.1-6-6.4c1.1-2.7,3.8-5.9,8.4-9.8l-3.7-6.9c-12,8.1-24.1,18.4-31.6,31.1c-3.7,6.2-5.9,13.1-5.1,20.4
			C3781.5,557.8,3795.4,570,3811.8,568.3z"/>
	</g>
	<g>
		<path class="st3" d="M3975,2846.1c19.9,21.9,50.5,36.5,80.1,46.1c22.3,7.2,45,14.5,64.3,25c17,9.2,31.4,20.9,40.4,37.2
			c3.6,6.6,6.4,13.8,8.1,22c0.9-5,1.4-9.7,1.8-14.3c3-46.2-22.5-71.8-55.6-90.8c-13.9-8-29.2-14.8-44.2-21.5
			c-5.3-2.4-10.6-4.7-15.8-7.1c-26.1-12-49.7-24.8-62.2-44.3c-23.4-36.6,2.7-78.8,39.9-89.4c46.1-13.1,85,11,110.6,48.4
			c4.5,6.2,8.6,13.5,12.3,21.8c1.1,2.4,2.2,5.1,3.4,8h14.7l-1.5-90.8h-7.1c-5.5,8.4-10.6,14.3-15.1,18.1c-4.6,3.7-9.2,5.6-14,5.6
			c-4.6,0-12.6-2.9-24.1-8.7c-32.6-16.2-63.7-21.1-96.7-7.4c-20.7,8.6-38,23.5-49,41.7c-6.4-17.6-17-32.8-34.3-42.1
			c-25.4-13.7-59.4-11-85.8-2.3l3.1,6.9c28.1-7.8,54.5,6.5,65.9,33.2c7.3,17,6.2,36.8-2.1,50.7c-17.2,28.6-70.6,32.9-104.2,52.8
			c-21,12.5-38.3,29.1-45.2,51.2c-13.1,42.4,12.5,85.1,52.3,101.7c30.1,12.5,59,7.1,88.8-7.6c33-16.7,54.4,10.5,86.5,0.9
			c18.8-5.6,35.3-19.6,39.6-39.6l-8.1-3.1c-3.9,14.4-19.7,21.5-32.4,12.2c-13-9.6-14.3-28.2-14.3-43V2846.1L3975,2846.1z
			 M3918.9,2857v70.7c0,43.8-34.8,79.8-87.4,64.9c-33.9-9.6-57.9-48.2-36.5-81.6c11.4-17.8,33-29.5,56.8-40.4
			c4.7-2.2,9.6-4.3,14.4-6.5c13.7-6.1,27.7-12.3,40.3-19.6c31.5-18.1,47.1-41.8,54.4-76.5C3965.8,2806.4,3953.3,2831.3,3918.9,2857z
			"/>
		<path class="st3" d="M3811.8,2794.9c10.6-1.1,19.3-7.8,23.4-17.6c4-9.7,2.6-20.6-3.6-29c-3.8-4.8-7.8-7.4-13.7-8.8
			c-3.9-1-7.7-2.1-6-6.4c1.1-2.7,3.8-5.9,8.4-9.8l-3.7-6.8c-12,8.1-24.1,18.4-31.6,31c-3.7,6.2-5.9,13.1-5.1,20.4
			C3781.5,2784.5,3795.4,2796.6,3811.8,2794.9z"/>
	</g>
	<g>
		<g>
			<path class="st3" d="M5223.9,727.4c23.3,25.7,59.3,42.8,94.1,54.1c26.1,8.5,52.8,17,75.5,29.3c20,10.8,36.8,24.6,47.4,43.7
				c4.3,7.7,7.5,16.3,9.5,25.8c1-5.8,1.7-11.4,2.1-16.8c3.5-54.3-26.4-84.3-65.2-106.6c-16.3-9.3-34.2-17.3-51.9-25.2
				c-6.2-2.8-12.4-5.6-18.5-8.4c-30.6-14.1-58.4-29.1-73.1-52c-27.5-43,3.3-92.6,46.9-104.9c54.1-15.3,99.7,12.9,129.9,56.8
				c5.2,7.4,10,15.9,14.4,25.7c1.3,2.8,2.6,6,3.9,9.4h17.3l-1.7-106.6h-8.4c-6.5,9.8-12.5,16.8-17.8,21.3
				c-5.4,4.4-10.8,6.6-16.4,6.6c-5.4,0-14.9-3.4-28.3-10.2c-38.3-19-74.8-24.7-113.5-8.7c-24.4,10.1-44.7,27.6-57.5,49
				c-7.6-20.7-20-38.6-40.3-49.5c-29.8-16.1-69.7-12.9-100.7-2.7l3.6,8.1c33-9.2,63.9,7.6,77.4,39c8.6,20,7.3,43.2-2.5,59.5
				c-20.2,33.5-82.9,38.6-122.4,62.1c-24.7,14.6-45,34.2-53.1,60.1c-15.5,49.7,14.6,99.9,61.4,119.4c35.4,14.7,69.3,8.4,104.2-8.9
				c38.8-19.6,63.9,12.3,101.6,1.1c22.1-6.6,41.4-23,46.5-46.5l-9.5-3.6c-4.6,16.9-23.2,25.3-38.1,14.3
				c-15.3-11.2-16.9-33-16.9-50.4V727.4L5223.9,727.4z M5158,740.3v83c0,51.5-40.8,93.8-102.6,76.3c-39.9-11.3-67.9-56.6-42.8-95.8
				c13.4-20.9,38.8-34.6,66.7-47.5c5.6-2.6,11.3-5.1,16.9-7.6c16.1-7.2,32.4-14.5,47.4-23c37-21.2,55.3-49,63.9-89.9
				C5213.1,680.9,5198.4,710.2,5158,740.3z"/>
			<path class="st3" d="M5032.2,667.4c12.4-1.3,22.6-9.2,27.5-20.6c4.7-11.4,3.1-24.2-4.3-34.1c-4.5-5.6-9.2-8.6-16-10.3
				c-4.6-1.1-9-2.5-7-7.5c1.2-3.2,4.5-7,9.9-11.5l-4.4-8.1c-14.1,9.6-28.3,21.6-37,36.5c-4.4,7.3-6.9,15.4-6,24
				C4996.7,655.2,5013,669.4,5032.2,667.4z"/>
		</g>
		<g>
			<path class="st7" d="M4862.8,961.2h-23.2v51.8h23.9c2.9,0,5.5-0.3,7.9-0.9c2.4-0.6,4.4-1.5,6.1-2.7c1.7-1.2,3-2.7,3.9-4.5
				c0.9-1.8,1.4-3.8,1.4-6.2c0-1.8-0.2-3.3-0.8-4.7c-0.5-1.4-1.2-2.5-2.1-3.5c-0.9-1-2-1.8-3.3-2.6c-1.2-0.7-2.7-1.3-4.2-1.9
				c0.9-0.5,1.9-1.1,2.8-1.8c0.9-0.7,1.7-1.5,2.4-2.4c0.7-0.9,1.2-2,1.6-3.2c0.4-1.2,0.6-2.6,0.6-4.2c0-4.1-1.5-7.3-4.6-9.7
				C4872.2,962.4,4868.1,961.2,4862.8,961.2L4862.8,961.2z M4861,983h-12.4v-13.7h13.1c2.9,0,5.2,0.6,6.8,1.7
				c1.6,1.1,2.3,2.8,2.3,4.9c0,2.4-0.9,4.2-2.7,5.4C4866.3,982.4,4864,983,4861,983L4861,983z M4863.7,1004.9h-15.1v-14.2h14.4
				c3.6,0,6.3,0.6,8,1.8c1.8,1.2,2.6,3,2.6,5.2c0,2.4-0.9,4.2-2.7,5.4C4869.2,1004.3,4866.8,1004.9,4863.7,1004.9L4863.7,1004.9z
				 M4967.7,1013l-14-19.6c1.8-0.5,3.5-1.2,5-2.1c1.5-0.9,2.8-2,3.9-3.4c1.1-1.3,1.9-2.8,2.5-4.5c0.6-1.7,0.9-3.6,0.9-5.8
				c0-2.5-0.5-4.8-1.3-6.8c-0.9-2-2.2-3.8-3.8-5.2c-1.7-1.4-3.7-2.5-6.1-3.3c-2.4-0.8-5.1-1.1-8-1.1h-23.1v51.8h9.1v-18.1h11.4
				l12.7,18.1H4967.7L4967.7,1013z M4956.8,978.2c0,2.7-1,4.8-2.9,6.3c-1.9,1.6-4.5,2.4-7.8,2.4h-13.3v-17.4h13.2
				c3.4,0,6,0.7,7.9,2.2S4956.8,975.3,4956.8,978.2L4956.8,978.2z M5034.8,960.8h-8.4l-22.8,52.1h9.3l5.3-12.5h24.5l5.2,12.5h9.6
				L5034.8,960.8L5034.8,960.8z M5039.4,992.4h-17.8l8.9-20.7L5039.4,992.4L5039.4,992.4z M5133.4,997l-27.7-35.8h-8.4v51.8h9v-36.8
				l28.5,36.8h7.6v-51.8h-8.9V997L5133.4,997z M5233.2,987c0-3.6-0.7-7.1-2-10.2c-1.3-3.1-3.2-5.9-5.6-8.2c-2.4-2.3-5.4-4.1-8.7-5.4
				c-3.4-1.3-7.1-2-11.1-2h-19.3v51.8h19.3c4,0,7.7-0.7,11.1-2c3.4-1.4,6.3-3.2,8.7-5.5c2.4-2.3,4.3-5.1,5.6-8.2
				C5232.5,994.1,5233.2,990.7,5233.2,987L5233.2,987z M5223.7,987.2c0,2.6-0.4,4.9-1.3,7.1c-0.8,2.1-2.1,4-3.6,5.6
				c-1.6,1.5-3.4,2.8-5.7,3.6c-2.2,0.9-4.7,1.3-7.4,1.3h-10.2v-35.2h10.2c2.7,0,5.2,0.4,7.4,1.3c2.2,0.9,4.1,2.1,5.7,3.7
				c1.5,1.6,2.8,3.4,3.6,5.6C5223.3,982.3,5223.7,984.6,5223.7,987.2L5223.7,987.2z M5311.2,997l-27.7-35.8h-8.4v51.8h9v-36.8
				l28.5,36.8h7.6v-51.8h-8.9V997L5311.2,997z M5391,960.8h-8.4l-22.8,52.1h9.3l5.3-12.5h24.5l5.3,12.5h9.6L5391,960.8L5391,960.8z
				 M5395.5,992.4h-17.8l8.9-20.7L5395.5,992.4L5395.5,992.4z M5495.2,975.9v37.1h9.1v-51.8h-9.7l-15.8,24.5l-15.7-24.5h-9.7v51.8
				h8.9v-37l16.2,24.3h0.3L5495.2,975.9L5495.2,975.9z M5586.7,961.2h-38.4v51.8h38.7v-8.1h-29.7v-13.9h26v-8.1h-26v-13.5h29.3
				V961.2z"/>
			<path class="st7" d="M5018.1,1038.3h7.3v-3.8h-18.7v3.8h7.3v19.3h4.1V1038.3L5018.1,1038.3z M5055.2,1034.4h-3.7l-10.1,23.2h4.1
				l2.4-5.6h10.9l2.3,5.6h4.3L5055.2,1034.4L5055.2,1034.4z M5057.3,1048.4h-7.9l4-9.2L5057.3,1048.4L5057.3,1048.4z M5105.1,1054.4
				v-9.7h-9.8v3.5h5.9v4.3c-0.7,0.5-1.5,0.9-2.5,1.3c-1,0.3-2,0.5-3.1,0.5c-1.2,0-2.3-0.2-3.2-0.6c-1-0.4-1.8-1-2.5-1.7
				c-0.7-0.7-1.2-1.6-1.6-2.6c-0.4-1-0.6-2.1-0.6-3.3c0-1.1,0.2-2.2,0.6-3.2c0.4-1,0.9-1.8,1.6-2.6c0.7-0.7,1.4-1.3,2.4-1.7
				c0.9-0.4,1.9-0.7,3-0.7c0.7,0,1.4,0.1,2,0.2c0.6,0.1,1.1,0.3,1.7,0.5c0.5,0.2,1,0.4,1.4,0.8c0.5,0.3,0.9,0.7,1.4,1l2.6-3
				c-0.6-0.5-1.2-1-1.8-1.4c-0.6-0.4-1.3-0.7-2-1c-0.7-0.2-1.4-0.5-2.3-0.6c-0.9-0.1-1.8-0.2-2.7-0.2c-1.8,0-3.4,0.3-4.8,1
				c-1.5,0.6-2.7,1.5-3.8,2.6c-1.1,1.1-1.9,2.4-2.4,3.8c-0.6,1.4-0.9,3-0.9,4.6c0,1.7,0.3,3.3,0.8,4.7c0.6,1.4,1.4,2.7,2.4,3.8
				c1.1,1.1,2.3,1.9,3.8,2.5c1.5,0.6,3.1,0.9,4.9,0.9c1,0,2-0.1,2.9-0.3c0.9-0.2,1.8-0.5,2.6-0.8c0.8-0.3,1.6-0.7,2.3-1.1
				C5103.8,1055.3,5104.5,1054.9,5105.1,1054.4L5105.1,1054.4z M5127,1057.6h16.2v-3.7H5131v-19.4h-4V1057.6L5127,1057.6z
				 M5164.2,1034.5v23h4v-23H5164.2L5164.2,1034.5z M5207.1,1050.5l-12.3-15.9h-3.8v23h4v-16.4l12.7,16.4h3.4v-23h-4V1050.5
				L5207.1,1050.5z M5250.7,1034.5h-17.1v23h17.2v-3.6h-13.2v-6.2h11.5v-3.6h-11.5v-6h13V1034.5L5250.7,1034.5z M5297.1,1047.9v9.7
				h4v-23h-4v9.6h-11v-9.6h-4v23h4v-9.7H5297.1L5297.1,1047.9z M5340.8,1034.5h-17.1v23h17.2v-3.6h-13.2v-6.2h11.6v-3.6h-11.6v-6h13
				V1034.5L5340.8,1034.5z M5381.9,1057.6l-6.2-8.7c0.8-0.2,1.5-0.5,2.2-0.9c0.7-0.4,1.3-0.9,1.7-1.5c0.5-0.6,0.8-1.2,1.1-2
				c0.3-0.8,0.4-1.6,0.4-2.6c0-1.1-0.2-2.1-0.6-3c-0.4-0.9-1-1.7-1.7-2.3c-0.7-0.6-1.6-1.1-2.7-1.4c-1.1-0.3-2.3-0.5-3.6-0.5h-10.2
				v23h4v-8h5.1l5.7,8H5381.9L5381.9,1057.6z M5377.1,1042.1c0,1.2-0.5,2.1-1.3,2.8c-0.8,0.7-2,1.1-3.5,1.1h-5.9v-7.7h5.9
				c1.5,0,2.7,0.3,3.5,1C5376.7,1039.8,5377.1,1040.8,5377.1,1042.1L5377.1,1042.1z M5419.9,1034.5h-17.1v23h17.3v-3.6h-13.2v-6.2
				h11.6v-3.6h-11.6v-6h13V1034.5z"/>
		</g>
	</g>
	<g>
		<g>
			<path class="st3" d="M5753.5,2568.2c31.6,34.8,80.2,58,127.4,73.3c35.3,11.5,71.5,23,102.2,39.7c27,14.7,49.8,33.3,64.1,59.2
				c5.8,10.4,10.1,22,12.8,35c1.4-7.9,2.3-15.5,2.8-22.7c4.8-73.5-35.8-114.1-88.3-144.2c-22.1-12.7-46.3-23.5-70.2-34.1
				c-8.4-3.8-16.8-7.5-25.1-11.3c-41.5-19.1-79.1-39.4-98.9-70.4c-37.2-58.2,4.4-125.3,63.4-142c73.3-20.7,135,17.4,175.8,76.9
				c7.1,9.9,13.6,21.5,19.6,34.7c1.7,3.9,3.5,8.1,5.3,12.7h23.4l-2.4-144.3h-11.3c-8.8,13.3-16.8,22.8-24.1,28.8
				c-7.3,6-14.6,8.9-22.3,8.9c-7.3,0-20.1-4.6-38.3-13.8c-51.8-25.7-101.3-33.5-153.7-11.7c-32.9,13.7-60.5,37.4-77.9,66.3
				c-10.3-28-27.1-52.2-54.5-66.9c-40.3-21.9-94.3-17.4-136.3-3.6l5,10.9c44.7-12.4,86.5,10.3,104.7,52.8
				c11.6,27.1,9.8,58.5-3.4,80.5c-27.3,45.4-112.1,52.3-165.7,84c-33.4,19.8-60.9,46.3-71.9,81.4c-20.9,67.3,19.8,135.3,83.1,161.6
				c47.8,19.9,93.8,11.4,141.1-12.1c52.5-26.5,86.4,16.7,137.5,1.5c29.9-9,56-31.2,62.9-62.9l-12.9-4.9
				c-6.3,22.8-31.4,34.2-51.6,19.3c-20.7-15.2-22.8-44.7-22.8-68.3V2568.2L5753.5,2568.2z M5664.2,2585.6v112.4
				c0,69.7-55.3,126.9-138.9,103.2c-53.9-15.3-91.9-76.6-57.9-129.7c18.1-28.3,52.4-46.9,90.3-64.3c7.5-3.5,15.2-6.9,22.9-10.3
				c21.8-9.7,43.9-19.6,64.1-31.1c50.1-28.7,74.9-66.4,86.5-121.6C5738.8,2505.2,5719,2544.8,5664.2,2585.6z"/>
			<path class="st3" d="M5494.1,2487c16.8-1.8,30.6-12.4,37.2-27.9c6.4-15.4,4.1-32.8-5.8-46.1c-6.1-7.6-12.5-11.7-21.7-14
				c-6.2-1.6-12.2-3.4-9.5-10.1c1.7-4.3,6.1-9.4,13.4-15.5l-5.9-10.9c-19.1,12.9-38.2,29.3-50.2,49.3c-5.9,9.9-9.4,20.8-8.2,32.5
				C5446,2470.4,5468,2489.7,5494.1,2487z"/>
		</g>
		<g>
			<path class="st7" d="M5264.8,2884.6h-31.5v70.1h32.4c3.9,0,7.4-0.4,10.6-1.2c3.2-0.9,5.9-2.1,8.2-3.7c2.3-1.6,4-3.6,5.3-6.1
				c1.2-2.4,1.9-5.1,1.9-8.3c0-2.4-0.3-4.5-1-6.4c-0.7-1.8-1.6-3.4-2.9-4.8c-1.2-1.3-2.7-2.5-4.4-3.4c-1.7-1-3.6-1.8-5.7-2.6
				c1.3-0.7,2.5-1.5,3.8-2.4s2.3-2,3.2-3.3c0.9-1.2,1.6-2.7,2.2-4.3c0.6-1.7,0.9-3.6,0.9-5.7c0-5.6-2.1-9.9-6.2-13.1
				C5277.4,2886.2,5271.8,2884.6,5264.8,2884.6L5264.8,2884.6z M5262.3,2914.1h-16.8v-18.6h17.7c4,0,7,0.8,9.1,2.4
				c2.1,1.6,3.2,3.8,3.2,6.7c0,3.3-1.2,5.7-3.6,7.3C5269.5,2913.3,5266.3,2914.1,5262.3,2914.1L5262.3,2914.1z M5265.9,2943.7h-20.4
				v-19.2h19.5c4.9,0,8.5,0.8,10.9,2.5c2.4,1.7,3.5,4,3.5,7c0,3.2-1.2,5.6-3.6,7.3C5273.4,2942.9,5270.1,2943.7,5265.9,2943.7
				L5265.9,2943.7z M5406.7,2954.7l-18.9-26.5c2.5-0.7,4.7-1.6,6.8-2.9c2-1.2,3.8-2.7,5.2-4.5c1.5-1.8,2.6-3.8,3.5-6.1
				c0.8-2.3,1.2-4.9,1.2-7.9c0-3.4-0.6-6.5-1.8-9.3c-1.2-2.7-2.9-5.1-5.2-7c-2.2-1.9-5-3.4-8.2-4.4c-3.2-1-6.9-1.6-10.9-1.6h-31.2
				v70.1h12.3v-24.4h15.4l17.2,24.4H5406.7L5406.7,2954.7z M5392,2907.5c0,3.6-1.3,6.5-3.9,8.6c-2.6,2.1-6.1,3.2-10.5,3.2h-18v-23.5
				h17.9c4.6,0,8.2,1,10.7,2.9C5390.7,2900.7,5392,2903.6,5392,2907.5L5392,2907.5z M5497.5,2884.1h-11.4l-30.8,70.6h12.6l7.2-16.9
				h33.1l7.1,16.9h13L5497.5,2884.1L5497.5,2884.1z M5503.7,2926.8h-24.1l12-28L5503.7,2926.8L5503.7,2926.8z M5630.9,2933
				l-37.5-48.5H5582v70.1h12.1v-49.8l38.6,49.8h10.3v-70.1h-12.1V2933L5630.9,2933z M5766.1,2919.5c0-4.9-0.9-9.5-2.7-13.8
				c-1.8-4.3-4.4-8-7.7-11.1c-3.3-3.1-7.2-5.6-11.8-7.3c-4.6-1.8-9.6-2.7-15.1-2.7h-26.1v70.1h26.1c5.5,0,10.5-0.9,15.1-2.7
				c4.6-1.8,8.5-4.3,11.8-7.4c3.3-3.1,5.9-6.9,7.7-11.1C5765.1,2929.1,5766.1,2924.5,5766.1,2919.5L5766.1,2919.5z M5753.2,2919.7
				c0,3.5-0.6,6.6-1.8,9.6c-1.2,2.9-2.8,5.4-4.9,7.5c-2.1,2.1-4.6,3.7-7.7,4.9c-3,1.2-6.3,1.7-10,1.7H5715v-47.6h13.8
				c3.7,0,7,0.6,10,1.8c3,1.2,5.6,2.9,7.7,5c2.1,2.1,3.7,4.6,4.9,7.6C5752.6,2913.1,5753.2,2916.3,5753.2,2919.7L5753.2,2919.7z
				 M5871.6,2933l-37.5-48.5h-11.4v70.1h12.1v-49.8l38.6,49.8h10.3v-70.1h-12.1V2933L5871.6,2933z M5979.6,2884.1h-11.4l-30.8,70.6
				h12.6l7.2-16.9h33.1l7.1,16.9h13L5979.6,2884.1L5979.6,2884.1z M5985.8,2926.8h-24.1l12-28L5985.8,2926.8L5985.8,2926.8z
				 M6120.6,2904.4v50.2h12.3v-70.1h-13.1l-21.3,33.1l-21.3-33.1H6064v70.1h12.1v-50l21.9,32.8h0.4L6120.6,2904.4L6120.6,2904.4z
				 M6244.5,2884.6h-52v70.1h52.5v-11h-40.2v-18.8h35.2v-11h-35.2v-18.2h39.7V2884.6z"/>
			<path class="st7" d="M5474.9,2988.9h9.9v-5.1h-25.3v5.1h9.9v26.1h5.5V2988.9L5474.9,2988.9z M5525.2,2983.6h-5.1l-13.7,31.4h5.6
				l3.2-7.5h14.8l3.2,7.5h5.8L5525.2,2983.6L5525.2,2983.6z M5527.9,3002.7h-10.7l5.3-12.5L5527.9,3002.7L5527.9,3002.7z
				 M5592.6,3010.7v-13.1h-13.3v4.8h8v5.8c-0.9,0.7-2.1,1.3-3.4,1.7c-1.3,0.4-2.7,0.7-4.2,0.7c-1.6,0-3-0.3-4.3-0.8
				c-1.3-0.6-2.4-1.4-3.3-2.4c-0.9-1-1.6-2.2-2.2-3.5c-0.5-1.4-0.7-2.9-0.7-4.5c0-1.5,0.2-3,0.8-4.3c0.5-1.3,1.2-2.5,2.1-3.5
				c0.9-1,2-1.8,3.2-2.4c1.2-0.6,2.6-0.8,4-0.8c1,0,1.9,0.1,2.7,0.2c0.9,0.1,1.6,0.4,2.3,0.7c0.7,0.3,1.3,0.6,2,1.1
				c0.6,0.4,1.2,0.9,1.8,1.4l3.5-4.1c-0.8-0.7-1.6-1.3-2.5-1.8c-0.9-0.5-1.8-0.9-2.7-1.3c-0.9-0.4-2-0.6-3.1-0.9
				c-1.1-0.2-2.4-0.3-3.7-0.3c-2.4,0-4.5,0.4-6.5,1.3c-2,0.8-3.7,2-5.1,3.5c-1.4,1.4-2.5,3.2-3.3,5.1c-0.8,2-1.2,4-1.2,6.2
				c0,2.3,0.4,4.4,1.2,6.4c0.8,2,1.9,3.6,3.3,5.1c1.4,1.4,3.1,2.6,5.1,3.4c2,0.8,4.2,1.2,6.6,1.2c1.4,0,2.7-0.1,4-0.4
				c1.2-0.3,2.4-0.6,3.5-1.1c1.1-0.5,2.1-1,3-1.6C5591,3012,5591.8,3011.4,5592.6,3010.7L5592.6,3010.7z M5622.2,3015h21.9v-5h-16.4
				v-26.2h-5.5V3015L5622.2,3015z M5672.6,2983.8v31.2h5.5v-31.2H5672.6L5672.6,2983.8z M5730.7,3005.4l-16.7-21.6h-5.1v31.2h5.4
				v-22.2l17.2,22.2h4.6v-31.2h-5.4V3005.4L5730.7,3005.4z M5789.7,2983.8h-23.1v31.2h23.3v-4.9H5772v-8.4h15.6v-4.9H5772v-8.1h17.6
				V2983.8L5789.7,2983.8z M5852.6,3001.9v13.1h5.5v-31.2h-5.5v13h-14.9v-13h-5.5v31.2h5.5v-13.1H5852.6L5852.6,3001.9z
				 M5911.7,2983.8h-23.1v31.2h23.3v-4.9H5894v-8.4h15.6v-4.9H5894v-8.1h17.6V2983.8L5911.7,2983.8z M5967.3,3015l-8.4-11.8
				c1.1-0.3,2.1-0.7,3-1.3c0.9-0.5,1.7-1.2,2.4-2c0.7-0.8,1.2-1.7,1.5-2.7c0.4-1,0.5-2.2,0.5-3.5c0-1.5-0.2-2.9-0.8-4.1
				s-1.3-2.3-2.3-3.1c-1-0.8-2.2-1.5-3.6-2c-1.4-0.4-3.1-0.7-4.9-0.7h-13.9v31.2h5.5v-10.9h6.9l7.7,10.9H5967.3L5967.3,3015z
				 M5960.8,2994.1c0,1.6-0.6,2.9-1.7,3.8c-1.1,0.9-2.7,1.4-4.7,1.4h-8v-10.5h8c2.1,0,3.6,0.4,4.8,1.3
				C5960.2,2991,5960.8,2992.3,5960.8,2994.1L5960.8,2994.1z M6018.7,2983.8h-23.1v31.2h23.3v-4.9H6001v-8.4h15.6v-4.9H6001v-8.1
				h17.6V2983.8z"/>
		</g>
	</g>
</g>
</svg>
