<?xml version="1.0" encoding="UTF-8"?>
<svg id="Layer_1" data-name="Layer 1" xmlns="http://www.w3.org/2000/svg" viewBox="0 0 102.86 57.15">
  <defs>
    <style>
      .cls-1 {
        fill: #fff;
      }

      .cls-2 {
        fill: #1c65af;
      }

      .cls-3 {
        fill: #fff100;
      }
    </style>
  </defs>
  <path class="cls-2" d="M51.13,16.48h38.8c7.14,0,12.93,5.8,12.93,12.93h0c0,7.14-5.8,12.93-12.93,12.93h-38.8v-25.87h0Z"/>
  <path class="cls-2" d="M63.82,41.56c-.17-1.03-.78-1.93-1.67-2.47l-3.75-2.27c-1.48-.89-3.37-.6-4.5.66-.09-.04-.2-.09-.33-.15-.52-.26-.97-.56-1.35-.89v-13.29h.54c1.97,0,3.57-1.6,3.57-3.57v-4c0-1.97-1.6-3.57-3.57-3.57h-5.97c-.36,0-.71.05-1.04.15-.33-.1-.68-.15-1.04-.15h-20.85l-7.04-7.72c-.81-.97-1.63-1.73-2.49-2.31-1.18-.79-2.36-1.19-3.52-1.19-.72,0-1.56.15-2.79.52-.11.03-.27.07-.52.13-.49-.65-1.2-1.12-2-1.31-.98-.24-2.01-.06-2.84.5l-1.09.73C.04,2.38-.45,4.43.45,6.05c1.04,1.86,2.19,3.41,3.42,4.6.18.18.37.35.56.51-.05.03-.1.06-.15.08-1.28.74-2.31,1.76-3.06,3.05C.46,15.59.07,17,.07,18.5c0,1.69.56,3.39,1.67,5.06.21.32.44.63.69.94-.76,1.15-1.16,2.44-1.16,3.76,0,1.93.69,3.8,2.04,5.54,1.18,1.53,2.74,2.79,4.63,3.75,1.92.97,3.96,1.47,6.08,1.47,1.27,0,2.55-.24,3.82-.71.67,1.06,1.54,1.95,2.28,2.65,1.75,1.64,3.82,3.07,6.15,4.26.48.25.95.46,1.4.66-.33,1.22,0,2.57.97,3.51,5.35,5.17,11.45,7.78,18.14,7.78,1.74,0,3.43-.36,5.04-1.08,1.66-.74,3.05-1.78,4.11-3.09,1.21-1.5,1.85-3.23,1.85-5.02,0-.28-.02-.57-.06-.85,2.11-.13,3.93-1.04,5.31-2.68.67-.8.96-1.85.79-2.88Z"/>
  <g>
    <path class="cls-1" d="M34.76,43.21c.52-.24.99-.6,1.4-1.06l-3.71-2.24c-.27.42-.6.73-.98.95-.39.22-.79.33-1.2.33-.63,0-1.41-.23-2.33-.68-.92-.45-1.72-.99-2.38-1.61-.67-.62-1-1.17-1-1.63v-17.71l-3.93-4h1.67L14.13,6.62c-.61-.73-1.2-1.3-1.78-1.69-.58-.39-1.09-.59-1.53-.59-.36,0-.99.13-1.89.4-.12.02-.41.1-.87.22-.46.12-.84.18-1.13.18-.41,0-.82-.14-1.24-.42-.41-.28-.75-.67-1.02-1.15l-1.09.73c.87,1.56,1.8,2.82,2.79,3.78.98.95,1.89,1.43,2.71,1.43.19,0,.5-.05.91-.17.41-.11.69-.19.84-.24.97-.29,1.58-.44,1.82-.44.68,0,1.63.65,2.84,1.94l4.95,4.95h-5.21l3.06,4h2v6.82c-1.14,1.93-2.6,3.46-4.37,4.6-1.77,1.14-3.57,1.7-5.39,1.7-.61,0-1.14-.15-1.6-.46-.46-.31-.69-.69-.69-1.15,0-.73.3-1.42.89-2.05.59-.64,1.41-1.14,2.44-1.52,1.03-.38,2.14-.57,3.33-.57l-2.29-3.59c-.92,0-2.08.22-3.46.66-.58-.37-1.04-.82-1.38-1.36-.34-.54-.51-1.09-.51-1.65,0-.27.04-.52.11-.75.07-.23.12-.38.15-.46.58.56,1.23,1,1.93,1.32.7.32,1.41.48,2.11.48.9,0,1.67-.29,2.31-.86.64-.57.96-1.28.96-2.11s-.3-1.59-.91-2.35c-.61-.76-1.4-1.37-2.38-1.85-.98-.48-2.01-.71-3.08-.71-.85,0-1.64.21-2.38.64-.74.43-1.33,1.01-1.77,1.76-.44.75-.66,1.55-.66,2.4,0,.98.36,2,1.07,3.08.72,1.08,1.72,2.07,3,2.97-.87.42-1.57.95-2.09,1.61-.52.66-.78,1.36-.78,2.09,0,1.12.43,2.24,1.29,3.35.86,1.11,2,2.03,3.42,2.75,1.42.72,2.91,1.08,4.46,1.08,1.09,0,2.2-.27,3.31-.81,1.12-.54,2.1-1.3,2.95-2.27v2.38c0,.98.76,2.18,2.28,3.59,1.52,1.42,3.3,2.65,5.33,3.68,2.04,1.04,3.77,1.56,5.21,1.56.58,0,1.13-.12,1.66-.37ZM8.54,18.03c.16-.22.36-.41.45-.51.41-.45.93-.93,1.58-.93.89,0,.25.99-.01,1.35-.43.57-1.38,1.36-2.13.9-.28-.17-.11-.51.11-.81Z"/>
    <path class="cls-1" d="M56.55,39.87c-.32.42-.67.74-1.07.97-.4.23-.81.35-1.22.35-.63,0-1.4-.23-2.29-.68-.9-.45-1.67-.99-2.33-1.61s-.98-1.17-.98-1.63v-17.71l-3.93-4h-22.06l3.57,3.56v.44h18.17v8.1c-1.36-1.49-2.82-2.65-4.37-3.46-1.55-.82-3.11-1.23-4.66-1.23-1.24,0-2.4.25-3.5.75-1.09.5-1.96,1.17-2.6,2-.64.83-.96,1.72-.96,2.68,0,1.22.46,2.52,1.37,3.9.91,1.38,2.04,2.55,3.39,3.5,1.35.95,2.62,1.43,3.8,1.43,1.04,0,1.96-.35,2.75-1.06.79-.71,1.18-1.58,1.18-2.6,0-.95-.39-2-1.17-3.13-.78-1.14-1.84-2.23-3.2-3.28.34-.17.92-.26,1.75-.26,2.23,0,4.31.9,6.23,2.71v4.84c0,1.15.76,2.44,2.28,3.87,1.52,1.43,3.31,2.66,5.37,3.7,2.06,1.04,3.79,1.56,5.17,1.56,1.26,0,2.29-.48,3.09-1.43l-3.75-2.27ZM36.65,29.29c.38.57.56,1.09.56,1.56,0,.83-.36,1.54-1.07,2.13-.72.59-1.55.88-2.49.88-.56,0-1.09-.24-1.58-.73-.5-.49-.75-1.01-.75-1.58,0-.78.35-1.53,1.04-2.25.69-.72,1.61-1.28,2.75-1.67.66.54,1.17,1.09,1.55,1.67Z"/>
    <polygon class="cls-1" points="52.76 19.56 52.76 15.56 46.79 15.56 50.76 19.56 52.76 19.56"/>
    <path class="cls-1" d="M49.26,41.81c-1.43-.76-2.84-1.14-4.22-1.14-.92,0-1.79.18-2.6.55-.81.37-1.46.85-1.95,1.45-.49.6-.73,1.23-.73,1.89,0,.61.32,1.22.96,1.83.64.61,1.46,1.12,2.44,1.52.98.4,1.94.6,2.86.6.53,0,1.06-.14,1.58-.42.52-.28,1-.67,1.44-1.15l-2.44-1.5c-.82,1.03-1.48,1.54-1.97,1.54-.29,0-.54-.09-.75-.27-.21-.18-.31-.41-.31-.68,0-.39.2-.78.6-1.17.4-.39.91-.71,1.53-.97.62-.26,1.22-.38,1.8-.38.8,0,1.49.26,2.06.77.57.51.86,1.14.86,1.87,0,.78-.33,1.55-1,2.31-.67.76-1.52,1.38-2.57,1.87-1.04.49-2.11.73-3.2.73-2.01,0-4.01-.49-5.99-1.48-1.98-.99-3.76-2.33-5.33-4.01l-1.2,1.25c4.68,4.52,9.9,6.78,15.66,6.78,1.24,0,2.43-.26,3.59-.77,1.15-.51,2.08-1.2,2.79-2.07.7-.87,1.06-1.79,1.06-2.77,0-1.05-.47-2.15-1.4-3.3-.93-1.15-2.12-2.1-3.55-2.86Z"/>
  </g>
  <g>
    <path class="cls-3" d="M70.58,27.69c.36.09.67.25.93.47.27.22.5.48.69.77.19.29.34.61.43.97.1.36.14.71.14,1.07,0,.79-.2,1.54-.61,2.26-.41.72-.95,1.37-1.61,1.95-.16.13-.36.29-.59.46s-.5.37-.81.59l-.04.02-1.4-1.09c.62-.43,1.2-.87,1.75-1.32.54-.45,1.02-1.03,1.43-1.72.18-.31.3-.64.38-.99s.07-.67,0-.97-.23-.54-.47-.74c-.24-.2-.58-.3-1.02-.3-.43.02-.82.12-1.16.3-.34.19-.66.42-.96.71-.3.29-.57.6-.81.95-.24.34-.48.67-.7,1l-.02.07-1.4-1.11.78-1.02c-.24-.27-.44-.45-.62-.55-.19-.13-.41-.24-.64-.31s-.47-.1-.7-.09c-.23.02-.46.07-.68.18-.22.1-.41.26-.56.47-.24.31-.36.66-.36,1.06s.08.79.24,1.21c.16.41.39.83.67,1.24s.58.8.89,1.17c.31.36.62.69.93.98.31.29.58.51.8.66l-.78.71c-.39-.25-.81-.58-1.27-.99-.46-.41-.9-.86-1.31-1.35s-.79-1.01-1.11-1.57c-.33-.56-.55-1.11-.68-1.66-.13-.55-.13-1.08,0-1.59.13-.51.43-.98.92-1.41.38-.33.81-.54,1.27-.64.46-.1.91-.1,1.37,0s.88.3,1.28.59c.4.29.73.66,1,1.1.67-.76,1.32-1.25,1.96-1.49v-1h-8.49l-1.11-1.96h15.16l1.11,1.96h-4.87v.89c.25.03.47.07.64.11Z"/>
    <path class="cls-3" d="M79.85,26.69h-2.76v9.76l-2-1.93v-7.82h-1.11l.02-.04-1.07-1.91h5.78l1.13,1.96ZM76.14,22.93l-1.4-1.42,1.4-1.4,1.42,1.4-1.42,1.42Z"/>
    <path class="cls-3" d="M81.96,36.45l-2-1.93v-9.78c0-.52-.01-1.02-.04-1.49-.03-.4-.07-.8-.13-1.2-.06-.4-.14-.72-.24-.96-.06-.12-.12-.21-.17-.29s-.1-.14-.14-.2c-.06-.06-.1-.12-.13-.18l.16-.31c.22.09.46.21.71.36.21.13.43.3.67.51.24.21.46.48.67.82.24.43.4.87.5,1.32.1.45.15.99.17,1.61v11.71Z"/>
    <path class="cls-3" d="M89.52,29.98c-.27.07-.62.23-1.06.48-.44.24-.88.52-1.32.81l5.73,5.18-1.33,1.49-5.22-4.8v3.31l-2-1.93v-7.82h-.82l-1.11-1.96h1.93c0-.52-.01-1.02-.04-1.49-.03-.4-.07-.8-.13-1.2-.06-.4-.14-.72-.24-.96-.06-.12-.12-.21-.17-.29s-.1-.14-.14-.2c-.06-.06-.1-.12-.13-.18l.16-.31c.22.09.46.21.71.36.21.13.43.3.67.51.24.21.46.48.67.82.24.43.4.87.5,1.32.1.45.15.99.17,1.61h7.45l1.11,1.96h-8.56v3.82c.39-.34.79-.69,1.2-1.06s.75-.65,1-.86c.12-.1.27-.24.44-.4.18-.16.37-.31.57-.45.2-.13.4-.24.59-.32.19-.08.36-.09.49-.03.18.07.36.21.54.39.19.18.37.4.56.63s.36.48.51.73c.16.25.29.48.41.69l-1.47,1.58c-.09-.15-.2-.31-.33-.5-.13-.19-.27-.35-.42-.5-.15-.15-.3-.27-.46-.36-.16-.09-.3-.12-.43-.09Z"/>
  </g>
</svg>