<svg width="5866" height="5806" viewBox="0 0 5866 5806" fill="none" xmlns="http://www.w3.org/2000/svg">
<path d="M5783.49 3610.62C5408.14 5152.87 3853.63 6098.83 2311.38 5723.49C769.13 5348.14 -176.833 3793.63 198.512 2251.38C573.857 709.13 2128.37 -236.832 3670.62 138.512C5212.87 513.857 6158.83 2068.37 5783.49 3610.62ZM825.54 2403.98C534.476 3599.93 1268.03 4805.4 2463.98 5096.46C3659.93 5387.53 4865.4 4653.97 5156.46 3458.02C5447.52 2262.07 4713.97 1056.61 3518.02 765.541C2322.07 474.476 1116.6 1208.03 825.54 2403.98Z" fill="#D9D9D9"/>
<path d="M5485.99 3350.7C5604.9 3372.4 5684.54 3486.68 5653.85 3603.6C5524.63 4095.96 5266.54 4546.54 4904.44 4908.01C4542.33 5269.48 4091.29 5526.78 3598.71 5655.13C3481.74 5685.61 3367.59 5605.78 3346.1 5486.82V5486.82C3324.61 5367.87 3403.99 5254.99 3520.53 5222.91C3925.54 5111.44 4296.14 4896.73 4595.18 4598.22C4894.23 4299.7 5109.59 3929.47 5221.77 3524.67C5254.06 3408.18 5367.08 3328.99 5485.99 3350.7V3350.7Z" fill="#00779F"/>
</svg>
